<svg width="1440" height="1024" viewBox="0 0 1440 1024" fill="none" xmlns="http://www.w3.org/2000/svg">
<rect width="1440" height="1024" fill="#1D2951"/>
<!--<path id="star1" d="M222 109C229.732 109 236 102.732 236 95C236 87.268 229.732 81 222 81C214.268 81 208 87.268 208 95C208 102.732 214.268 109 222 109Z" fill="#F2F2F2"/>
<path id="star1" d="M499 258C506.732 258 513 251.732 513 244C513 236.268 506.732 230 499 230C491.268 230 485 236.268 485 244C485 251.732 491.268 258 499 258Z" fill="#F2F2F2"/>
<path id="star1" d="M431 755C438.732 755 445 748.732 445 741C445 733.268 438.732 727 431 727C423.268 727 417 733.268 417 741C417 748.732 423.268 755 431 755Z" fill="#F2F2F2"/>
<path id="star1" d="M85 828C92.732 828 99 821.732 99 814C99 806.268 92.732 800 85 800C77.268 800 71 806.268 71 814C71 821.732 77.268 828 85 828Z" fill="#F2F2F2"/>
<path id="star2" d="M1174 891C1178.97 891 1183 886.299 1183 880.5C1183 874.701 1178.97 870 1174 870C1169.03 870 1165 874.701 1165 880.5C1165 886.299 1169.03 891 1174 891Z" fill="#F2F2F2"/>
<path id="star2" d="M597 935C600.866 935 604 932.09 604 928.5C604 924.91 600.866 922 597 922C593.134 922 590 924.91 590 928.5C590 932.09 593.134 935 597 935Z" fill="#F2F2F2"/>
<path id="star2" d="M963.5 695C968.747 695 973 691.194 973 686.5C973 681.806 968.747 678 963.5 678C958.253 678 954 681.806 954 686.5C954 691.194 958.253 695 963.5 695Z" fill="#F2F2F2"/>
<path id="star2" d="M618 86C620.761 86 623 83.7614 623 81C623 78.2386 620.761 76 618 76C615.239 76 613 78.2386 613 81C613 83.7614 615.239 86 618 86Z" fill="#F2F2F2"/>
<path id="star3" d="M618 86C620.761 86 623 83.7614 623 81C623 78.2386 620.761 76 618 76C615.239 76 613 78.2386 613 81C613 83.7614 615.239 86 618 86Z" fill="#F2F2F2"/>
<path id="star3" d="M618 86C620.761 86 623 83.7614 623 81C623 78.2386 620.761 76 618 76C615.239 76 613 78.2386 613 81C613 83.7614 615.239 86 618 86Z" fill="#F2F2F2"/>
<path id="star3" d="M870 176C873.314 176 876 173.314 876 170C876 166.686 873.314 164 870 164C866.686 164 864 166.686 864 170C864 173.314 866.686 176 870 176Z" fill="#F2F2F2"/>
<path id="star3" d="M870 176C873.314 176 876 173.314 876 170C876 166.686 873.314 164 870 164C866.686 164 864 166.686 864 170C864 173.314 866.686 176 870 176Z" fill="#F2F2F2"/>
<path id="star4" d="M1083 86C1086.31 86 1089 83.3137 1089 80C1089 76.6863 1086.31 74 1083 74C1079.69 74 1077 76.6863 1077 80C1077 83.3137 1079.69 86 1083 86Z" fill="#F2F2F2"/>
<path id="star4" d="M1311 182C1314.31 182 1317 179.314 1317 176C1317 172.686 1314.31 170 1311 170C1307.69 170 1305 172.686 1305 176C1305 179.314 1307.69 182 1311 182Z" fill="#E5E5E5"/>
<path id="star4" d="M1403 678C1406.31 678 1409 675.314 1409 672C1409 668.686 1406.31 666 1403 666C1399.69 666 1397 668.686 1397 672C1397 675.314 1399.69 678 1403 678Z" fill="#E5E5E5"/>
<path id="star4" d="M793 820C796.314 820 799 817.314 799 814C799 810.686 796.314 808 793 808C789.686 808 787 810.686 787 814C787 817.314 789.686 820 793 820Z" fill="#E5E5E5"/>
<path id="star5" d="M283 637C286.314 637 289 634.314 289 631C289 627.686 286.314 625 283 625C279.686 625 277 627.686 277 631C277 634.314 279.686 637 283 637Z" fill="#E5E5E5"/>
<path id="star5" d="M13 208C16.3137 208 19 205.314 19 202C19 198.686 16.3137 196 13 196C9.68629 196 7 198.686 7 202C7 205.314 9.68629 208 13 208Z" fill="#F2F2F2"/>
<path id="star5" d="M1434 64C1437.31 64 1440 61.3137 1440 58C1440 54.6863 1437.31 52 1434 52C1430.69 52 1428 54.6863 1428 58C1428 61.3137 1430.69 64 1434 64Z" fill="#F2F2F2"/>-->

</svg>
