<svg width="162" height="295" viewBox="0 0 162 295" fill="none" xmlns="http://www.w3.org/2000/svg">
<path d="M11.5 295C94.6188 295 162 228.962 162 147.5C162 66.038 94.6188 0 11.5 0C-71.6189 0 -139 66.038 -139 147.5C-139 228.962 -71.6189 295 11.5 295Z" fill="#178181"/>
<path d="M162 147.5C162 117.906 153.109 90.349 137.799 67.2537C137.799 67.2537 129.214 79.5458 130.827 87.4468C132.439 95.349 141.912 95.9523 140.939 101.749C139.966 107.545 132.978 100.09 124.377 115.365C115.776 130.642 120.078 151.719 132.439 153.297C144.801 154.873 162 147.5 162 147.5V147.5Z" fill="#2AA846"/>
<path d="M51.0238 5.13947C68.5412 9.79954 84.7887 17.4834 99.1468 27.5819C99.1468 27.5819 81.6959 24.761 75.085 30.5538C68.4748 36.3484 58.834 50.0469 51.0232 30.5538C43.2137 11.0619 51.0238 5.13947 51.0238 5.13947V5.13947Z" fill="#2AA846"/>
<path d="M-101.658 50.2532C-74.0751 19.4482 -33.6059 4.57764e-05 11.4999 4.57764e-05C11.4999 4.57764e-05 1.28946 6.05907 20.6393 16.3311C39.9897 26.6042 31.1202 31.3444 27.089 34.5052C23.0585 37.6661 16.0667 28.1841 11.4999 21.8635C6.93263 15.5411 -12.6812 5.79691 -27.7323 11.066C-42.7829 16.3351 -55.68 20.2271 -53.5319 25.1292C-51.3843 30.0301 -25.5842 20.5515 -15.9093 21.0758C-6.23435 21.6013 -9.45952 27.3947 -18.5953 34.2437C-27.7323 41.0926 -28.8093 49.5203 -19.1338 54.7877C-9.45952 60.0573 2.36296 60.5845 5.05373 57.4242C7.74274 54.2633 0.215972 33.7188 18.4917 42.6731C36.7675 51.6273 51.8181 56.8993 36.7675 70.0672C21.7163 83.2338 4.51757 97.989 3.97907 106.414C3.44056 114.841 9.35592 121.694 6.13075 122.219C2.90558 122.743 -0.0544544 118.796 -2.20319 115.896C-4.35075 112.999 -14.2967 111.947 -19.1338 113.789C-23.9716 115.631 -33.1103 122.743 -28.0028 129.592C-22.8946 136.442 -15.9128 133.277 -8.92336 136.439C-1.93511 139.6 4.58165 151.629 3.24361 154.348C1.90557 157.066 -4.05151 153.625 -8.92336 144.341C-13.7964 135.056 -22.9357 141.18 -29.3661 139.6C-35.797 138.02 -40.6348 136.966 -47.0851 125.903C-53.5354 114.841 -66.8894 111.746 -72.3462 105.359C-87.9776 87.066 -86.8594 73.2257 -90.084 66.9045C-93.3091 60.5816 -101.658 50.2532 -101.658 50.2532V50.2532Z" fill="#2AA846"/>
<path d="M26.012 149.608C26.012 149.608 42.1372 151.185 50.1996 158.035C58.2619 164.884 59.3389 167.52 71.7005 170.153C84.0621 172.785 89.4383 179.631 81.3754 192.803C73.3131 205.972 58.7981 227.045 51.8122 233.366C44.8268 239.689 36.226 244.956 33.0008 255.491C29.7763 266.025 28.6992 272.343 35.6875 276.561C35.6875 276.561 31.9274 285.517 23.3265 273.928C14.7251 262.337 21.7133 248.642 23.3265 240.74C24.9385 232.839 29.2378 209.136 26.5505 203.339C23.865 197.543 11.4999 193.854 8.27475 181.74C5.04958 169.626 10.6939 146.05 26.012 149.608V149.608Z" fill="#2AA846"/>
<path opacity="0.367001" d="M-94.92 43.2026C-36.1456 -14.4014 59.1437 -14.4002 117.919 43.2026C176.694 100.804 176.694 194.195 117.919 251.798C117.919 251.798 186.202 163.304 89.5283 68.5576C-7.14559 -26.1893 -94.92 43.2026 -94.92 43.2026Z" fill="#414141"/>
</svg>
