<svg width="182" height="295" viewBox="0 0 182 295" fill="none" xmlns="http://www.w3.org/2000/svg">
<path d="M150.5 295C233.619 295 301 228.962 301 147.5C301 66.038 233.619 0 150.5 0C67.3811 0 0 66.038 0 147.5C0 228.962 67.3811 295 150.5 295Z" fill="#62372D"/>
<path d="M37.3423 50.2532C64.9249 19.4482 105.394 4.57764e-05 150.5 4.57764e-05C150.5 4.57764e-05 140.29 6.05907 159.639 16.3311C178.99 26.6042 170.12 31.3444 166.089 34.5052C162.059 37.6661 155.067 28.1841 150.5 21.8635C145.933 15.5411 126.319 5.79691 111.268 11.066C96.2172 16.3351 83.32 20.2271 85.4682 25.1292C87.6157 30.0301 113.416 20.5515 123.091 21.0758C132.766 21.6013 129.541 27.3947 120.405 34.2437C111.268 41.0926 110.191 49.5203 119.866 54.7877C129.541 60.0573 141.363 60.5845 144.054 57.4242C146.743 54.2633 139.216 33.7188 157.492 42.6731C175.768 51.6273 190.818 56.8993 175.768 70.0672C160.716 83.2338 143.518 97.989 142.979 106.414C142.441 114.841 148.356 121.694 145.131 122.219C141.906 122.743 138.946 118.796 136.797 115.896C134.649 112.999 124.703 111.947 119.866 113.789C115.028 115.631 105.89 122.743 110.997 129.592C116.105 136.442 123.087 133.277 130.077 136.439C137.065 139.6 143.582 151.629 142.244 154.348C140.906 157.066 134.949 153.625 130.077 144.341C125.204 135.056 116.064 141.18 109.634 139.6C103.203 138.02 98.3653 136.966 91.915 125.903C85.4646 114.841 72.1107 111.746 66.6539 105.359C51.0225 87.0659 52.1407 73.2257 48.9161 66.9045C45.6909 60.5816 37.3423 50.2532 37.3423 50.2532Z" fill="#2B7D88"/>
<path d="M165.012 149.608C165.012 149.608 181.137 151.185 189.2 158.035C197.262 164.884 198.339 167.52 210.7 170.153C223.062 172.785 228.438 179.631 220.375 192.803C212.313 205.972 197.798 227.045 190.812 233.366C183.827 239.689 175.226 244.956 172.001 255.491C168.776 266.025 167.699 272.343 174.687 276.561C174.687 276.561 170.927 285.517 162.326 273.928C153.725 262.337 160.713 248.642 162.326 240.74C163.938 232.839 168.238 209.136 165.55 203.339C162.865 197.543 150.5 193.854 147.275 181.74C144.05 169.626 149.694 146.05 165.012 149.608Z" fill="#2B7D88"/>
<path opacity="0.367001" d="M44.0801 43.2026C102.854 -14.4014 198.144 -14.4002 256.919 43.2026C315.694 100.804 315.694 194.195 256.919 251.798C256.919 251.798 325.202 163.304 228.528 68.5576C131.854 -26.1893 44.0801 43.2026 44.0801 43.2026Z" fill="#414141"/>
</svg>
