<svg width="119" height="116" viewBox="0 0 119 116" fill="none" xmlns="http://www.w3.org/2000/svg">
<path d="M59.5 116C92.3609 116 119 90.0325 119 58C119 25.9675 92.3609 0 59.5 0C26.6391 0 0 25.9675 0 58C0 90.0325 26.6391 116 59.5 116Z" fill="#E6E6E6"/>
<path d="M48.1023 24.9847C51.8732 24.9847 54.9302 22.0048 54.9302 18.3289C54.9302 14.6531 51.8732 11.6732 48.1023 11.6732C44.3314 11.6732 41.2744 14.6531 41.2744 18.3289C41.2744 22.0048 44.3314 24.9847 48.1023 24.9847Z" fill="#CBCBCB"/>
<path d="M59.8072 91.542C63.5781 91.542 66.6351 88.5621 66.6351 84.8863C66.6351 81.2104 63.5781 78.2305 59.8072 78.2305C56.0363 78.2305 52.9793 81.2104 52.9793 84.8863C52.9793 88.5621 56.0363 91.542 59.8072 91.542Z" fill="#CBCBCB"/>
<path d="M86.1432 52.5584C88.8367 52.5584 91.0203 50.43 91.0203 47.8043C91.0203 45.1787 88.8367 43.0502 86.1432 43.0502C83.4497 43.0502 81.2662 45.1787 81.2662 47.8043C81.2662 50.43 83.4497 52.5584 86.1432 52.5584Z" fill="#CBCBCB"/>
<path d="M30.545 78.2306C39.1642 78.2306 46.1514 71.4194 46.1514 63.0175C46.1514 54.6155 39.1642 47.8043 30.545 47.8043C21.9257 47.8043 14.9384 54.6155 14.9384 63.0175C14.9384 71.4194 21.9257 78.2306 30.545 78.2306Z" fill="#CBCBCB"/>
</svg>
