<svg width="475" height="476" viewBox="0 0 475 476" fill="none" xmlns="http://www.w3.org/2000/svg">
<g id="Moon_Orbit">
<!--<g id="Group">
<path id="Vector" fill-rule="evenodd" clip-rule="evenodd" d="M51.0363 105.738C52.7408 103.182 52.1359 99.7354 49.6067 98.0123C47.1324 96.2336 43.6684 96.9006 41.9639 99.4019C40.2594 101.959 40.8642 105.404 43.3935 107.127C44.3282 107.794 45.4279 108.128 46.4726 108.128C48.2321 108.128 49.9366 107.294 51.0363 105.738Z" fill="#FFD966"/>
<path id="Vector_2" fill-rule="evenodd" clip-rule="evenodd" d="M48.2382 372C45.7712 373.836 45.2778 377.339 47.0869 379.786C48.1834 381.232 49.828 382.011 51.5275 382.011C52.6239 382.011 53.7752 381.677 54.762 380.898C57.2289 379.063 57.7223 375.615 55.9132 373.112C54.1041 370.665 50.6503 370.165 48.2382 372Z" fill="#FFD966"/>
<path id="Vector_3" fill-rule="evenodd" clip-rule="evenodd" d="M58.937 86.103C56.5174 84.1565 53.1079 84.6022 51.1833 86.9923C49.3135 89.3835 49.6985 92.8864 52.0631 94.7773C53.053 95.611 54.2628 96.0001 55.4726 96.0001C57.1223 96.0001 58.7171 95.2775 59.8169 93.8869C61.6866 91.4967 61.3017 87.9939 58.937 86.103Z" fill="#FFD966"/>
<path id="Vector_4" fill-rule="evenodd" clip-rule="evenodd" d="M70.1908 73.189C67.9891 71.1314 64.4663 71.2981 62.4297 73.5225C60.3931 75.8015 60.5582 79.3044 62.7599 81.4166C63.8058 82.3616 65.1818 82.8618 66.5029 82.8618C67.9891 82.8618 69.4752 82.2504 70.5761 81.0831C72.6127 78.8041 72.4476 75.3013 70.1908 73.189Z" fill="#FFD966"/>
<path id="Vector_5" fill-rule="evenodd" clip-rule="evenodd" d="M57.9271 384.358C55.6184 386.358 55.3435 389.859 57.3224 392.194C58.4218 393.471 59.9609 394.138 61.5001 394.138C62.7644 394.138 64.0286 393.694 65.0731 392.805C67.3818 390.804 67.6566 387.303 65.6777 384.97C63.6988 382.635 60.2358 382.357 57.9271 384.358Z" fill="#FFD966"/>
<path id="Vector_6" fill-rule="evenodd" clip-rule="evenodd" d="M39.2854 346.466C37.6656 343.806 34.0061 342.808 31.1264 344.304C28.1868 345.801 27.1669 349.126 28.7267 351.841C28.7867 351.841 28.7867 351.841 28.7867 351.841C29.8666 353.67 31.9063 354.723 34.0061 354.723C34.966 354.723 35.9858 354.502 36.8857 354.003C39.7654 352.562 40.8453 349.181 39.2854 346.521V346.466Z" fill="#FFD966"/>
<path id="Vector_7" fill-rule="evenodd" clip-rule="evenodd" d="M39.5225 358.65C36.9919 360.316 36.2217 363.762 37.8721 366.316C38.9174 367.984 40.6778 368.872 42.4932 368.872C43.5385 368.872 44.5287 368.594 45.4639 367.984C48.0495 366.316 48.7647 362.872 47.1143 360.316C45.4639 357.706 42.0531 356.983 39.5225 358.65Z" fill="#FFD966"/>
<path id="Vector_8" fill-rule="evenodd" clip-rule="evenodd" d="M25.6293 317.901C24.5847 315.007 21.396 313.56 18.5371 314.673C15.6782 315.787 14.3038 318.959 15.3483 321.852C16.228 324.079 18.3172 325.415 20.5163 325.415C21.176 325.415 21.8358 325.304 22.4405 325.081C25.2994 323.968 26.7289 320.74 25.6293 317.901Z" fill="#FFD966"/>
<path id="Vector_9" fill-rule="evenodd" clip-rule="evenodd" d="M31.499 332.687C30.2355 329.909 26.9395 328.686 24.1929 329.964C21.4462 331.298 20.2377 334.575 21.5012 337.353C21.5561 337.353 21.5561 337.353 21.5561 337.353C22.435 339.408 24.4676 340.575 26.5001 340.575C27.2691 340.575 28.0931 340.408 28.8073 340.074C31.5539 338.797 32.7624 335.464 31.499 332.687Z" fill="#FFD966"/>
<path id="Vector_10" fill-rule="evenodd" clip-rule="evenodd" d="M68.6355 396.75C66.4919 398.92 66.4369 402.426 68.5806 404.596C69.6799 405.709 71.1089 406.266 72.538 406.266C73.9121 406.266 75.2862 405.766 76.3855 404.652C78.5292 402.538 78.5292 398.975 76.4405 396.805C74.2969 394.635 70.8341 394.579 68.6355 396.75Z" fill="#FFD966"/>
<path id="Vector_11" fill-rule="evenodd" clip-rule="evenodd" d="M106.974 41.7137C105.217 39.2215 101.759 38.6676 99.289 40.4403C96.8185 42.2675 96.2695 45.7027 98.0261 48.1949C99.124 49.6907 100.826 50.5214 102.528 50.5214C103.625 50.5214 104.723 50.1333 105.711 49.4693C108.182 47.6411 108.731 44.2069 106.974 41.7137Z" fill="#FFD966"/>
<path id="Vector_12" fill-rule="evenodd" clip-rule="evenodd" d="M120.171 33.9348C118.578 31.3233 115.17 30.5452 112.587 32.1571C110.004 33.7681 109.235 37.2133 110.829 39.8248C111.873 41.4914 113.686 42.4363 115.5 42.4363C116.489 42.4363 117.478 42.1584 118.413 41.6026C120.996 39.9916 121.765 36.5463 120.171 33.9348Z" fill="#FFD966"/>
<path id="Vector_13" fill-rule="evenodd" clip-rule="evenodd" d="M125.949 435.29C123.068 433.791 119.406 434.679 117.785 437.346C116.164 440.013 117.125 443.403 120.006 444.958C120.967 445.458 121.987 445.681 123.008 445.681C125.109 445.681 127.089 444.68 128.23 442.847C129.851 440.18 128.83 436.79 125.949 435.29Z" fill="#FFD966"/>
<path id="Vector_14" fill-rule="evenodd" clip-rule="evenodd" d="M112.517 427.396C110.043 425.724 106.579 426.393 104.929 428.957C103.225 431.521 103.939 434.976 106.469 436.704C107.403 437.317 108.448 437.596 109.493 437.596C111.252 437.596 113.012 436.76 114.057 435.144C115.761 432.58 115.101 429.124 112.517 427.396Z" fill="#FFD966"/>
<path id="Vector_15" fill-rule="evenodd" clip-rule="evenodd" d="M148.54 19.4757C147.328 16.6338 144.078 15.4078 141.269 16.6337C138.515 17.8597 137.248 21.1472 138.46 23.9892C139.341 26.0509 141.379 27.2768 143.528 27.2768C144.244 27.2768 145.015 27.1656 145.731 26.8311C148.485 25.5496 149.752 22.262 148.54 19.4757Z" fill="#FFD966"/>
<path id="Vector_16" fill-rule="evenodd" clip-rule="evenodd" d="M139.906 443.201C137.159 441.867 133.864 443.034 132.545 445.814C131.227 448.595 132.38 451.875 135.127 453.21C135.896 453.599 136.72 453.766 137.489 453.766C139.521 453.766 141.499 452.599 142.488 450.597C143.751 447.872 142.598 444.536 139.906 443.201Z" fill="#FFD966"/>
<path id="Vector_17" fill-rule="evenodd" clip-rule="evenodd" d="M93.7265 51.5371C91.8002 49.153 88.333 48.8205 86.0215 50.8165C83.6549 52.756 83.3247 56.2487 85.251 58.5772C86.3517 59.9072 87.9477 60.6278 89.4887 60.6278C90.7546 60.6278 91.9654 60.1841 93.011 59.3524C95.3776 57.3574 95.6528 53.8646 93.7265 51.5371Z" fill="#FFD966"/>
<path id="Vector_18" fill-rule="evenodd" clip-rule="evenodd" d="M20.7636 303.096C19.8839 300.154 16.8049 298.489 13.8908 299.377C10.9768 300.265 9.32726 303.373 10.262 306.315C10.9768 308.701 13.1211 310.255 15.4853 310.255C16.0351 310.255 16.53 310.144 17.0798 310.033C19.9938 309.146 21.6433 306.037 20.7636 303.096Z" fill="#FFD966"/>
<path id="Vector_19" fill-rule="evenodd" clip-rule="evenodd" d="M79.3993 408.171C77.3627 410.446 77.5829 413.943 79.8397 415.995C80.8855 416.939 82.2065 417.383 83.5275 417.383C85.0137 417.383 86.5549 416.717 87.6007 415.496C89.6373 413.221 89.4171 409.669 87.1603 407.672C84.8485 405.618 81.3809 405.841 79.3993 408.171Z" fill="#FFD966"/>
<path id="Vector_20" fill-rule="evenodd" clip-rule="evenodd" d="M81.4733 62.3651C79.3839 60.1447 75.92 60.0335 73.7206 62.1427C71.5213 64.2519 71.4113 67.8043 73.5007 70.0247C74.6004 71.1344 76.03 71.7448 77.5145 71.7448C78.8341 71.7448 80.2087 71.2456 81.3084 70.1905C83.5077 68.0813 83.5627 64.5844 81.4733 62.3651Z" fill="#FFD966"/>
<path id="Vector_21" fill-rule="evenodd" clip-rule="evenodd" d="M99.853 417.543C97.4345 415.654 93.9716 416.097 92.1576 418.543C90.2887 420.988 90.7283 424.489 93.147 426.322C94.1365 427.1 95.3458 427.489 96.5001 427.489C98.1491 427.489 99.798 426.767 100.843 425.323C102.711 422.877 102.272 419.432 99.853 417.543Z" fill="#FFD966"/>
<path id="Vector_22" fill-rule="evenodd" clip-rule="evenodd" d="M134.358 26.1893C132.928 23.4687 129.625 22.4692 126.929 23.8568C124.232 25.301 123.241 28.6876 124.617 31.4082C125.608 33.2405 127.534 34.3512 129.515 34.3512C130.396 34.3512 131.221 34.1289 132.047 33.6852C134.744 32.2966 135.789 28.9099 134.358 26.1893Z" fill="#FFD966"/>
<path id="Vector_23" fill-rule="evenodd" clip-rule="evenodd" d="M16.8677 287.286C16.1533 284.276 13.241 282.437 10.2737 283.106C7.30633 283.774 5.43802 286.783 6.15237 289.794C6.70188 292.357 8.95484 294.085 11.4826 294.085C11.8672 294.085 12.3068 294.085 12.6915 293.974C15.6588 293.305 17.5271 290.295 16.8677 287.286Z" fill="#FFD966"/>
<path id="Vector_24" fill-rule="evenodd" clip-rule="evenodd" d="M469.61 234.459C466.585 234.403 464.055 236.849 464 239.905C464 243.018 466.42 245.519 469.445 245.575H469.5C472.524 245.575 474.999 243.129 474.999 240.072C475.054 237.015 472.634 234.514 469.61 234.459Z" fill="#FFD966"/>
<path id="Vector_25" fill-rule="evenodd" clip-rule="evenodd" d="M34.6961 121.499C35.5758 121.999 36.5654 122.277 37.5 122.277C39.3692 122.277 41.1835 121.332 42.228 119.554C43.7674 116.886 42.9428 113.496 40.3038 111.94C37.6649 110.384 34.3113 111.217 32.7719 113.885C31.2325 116.552 32.0572 119.943 34.6961 121.499Z" fill="#FFD966"/>
<path id="Vector_26" fill-rule="evenodd" clip-rule="evenodd" d="M464.008 224.128C464.173 227.127 466.591 229.404 469.502 229.404C469.612 229.404 469.667 229.404 469.777 229.404C472.799 229.238 475.106 226.627 474.996 223.572C474.832 220.517 472.249 218.129 469.173 218.295C466.151 218.462 463.844 221.073 464.008 224.128Z" fill="#FFD966"/>
<path id="Vector_27" fill-rule="evenodd" clip-rule="evenodd" d="M467.839 202.15C464.808 202.539 462.659 205.31 463.045 208.358C463.375 211.128 465.745 213.234 468.5 213.234C468.72 213.234 468.941 213.179 469.161 213.179C472.192 212.79 474.341 210.02 473.955 207.028C473.57 203.98 470.87 201.818 467.839 202.15Z" fill="#FFD966"/>
<path id="Vector_28" fill-rule="evenodd" clip-rule="evenodd" d="M6.99387 262.755C9.95579 262.453 12.2047 259.488 11.9853 256.159C11.7111 252.831 9.02339 250.35 6.00655 250.653C2.98974 250.955 0.795703 253.92 1.01511 257.248C1.28936 260.396 3.70281 262.755 6.50021 262.755C6.66476 262.755 6.82931 262.755 6.99387 262.755Z" fill="#FFD966"/>
<path id="Vector_29" fill-rule="evenodd" clip-rule="evenodd" d="M5.22545 229.404C5.33529 229.404 5.39021 229.404 5.50005 229.404C8.41077 229.404 10.8273 227.072 10.992 224.128C11.1568 221.017 8.79521 218.462 5.77465 218.295C2.75409 218.129 0.172885 220.517 0.00812459 223.572C-0.156631 226.627 2.20489 229.238 5.22545 229.404Z" fill="#FFD966"/>
<path id="Vector_30" fill-rule="evenodd" clip-rule="evenodd" d="M6.31074 213.234C6.55048 213.234 6.79022 213.234 7.02996 213.234C10.0267 213.234 12.6039 211.175 12.9635 208.338C13.3231 205.277 10.9857 202.495 7.74917 202.162C4.45276 201.771 1.45603 203.998 1.03649 207.058C0.676884 210.063 3.01433 212.845 6.31074 213.234Z" fill="#FFD966"/>
<path id="Vector_31" fill-rule="evenodd" clip-rule="evenodd" d="M27.3288 135.813C28.1672 136.259 29.1255 136.426 30.0238 136.426C32.1798 136.426 34.2759 135.313 35.354 133.365C36.8512 130.583 35.6534 127.244 32.7188 125.909C29.7244 124.517 26.131 125.631 24.6338 128.358C23.1366 131.083 24.3942 134.423 27.3288 135.813Z" fill="#FFD966"/>
<path id="Vector_32" fill-rule="evenodd" clip-rule="evenodd" d="M9.35475 277.859C12.3296 277.36 14.4231 274.53 13.9273 271.477C13.4866 268.481 10.6218 266.371 7.64689 266.872C4.61684 267.371 2.57845 270.201 3.07427 273.198C3.45992 275.973 5.82886 277.915 8.47327 277.915C8.74873 277.915 9.07925 277.859 9.35475 277.859Z" fill="#FFD966"/>
<path id="Vector_33" fill-rule="evenodd" clip-rule="evenodd" d="M15.7119 166.467C16.3172 166.634 16.9225 166.745 17.4727 166.745C19.7837 166.745 21.9297 165.303 22.7 162.972C23.6905 160.087 22.1498 156.923 19.2335 155.925C16.3722 154.926 13.2358 156.535 12.3004 159.421C11.31 162.306 12.8506 165.468 15.7119 166.467Z" fill="#FFD966"/>
<path id="Vector_34" fill-rule="evenodd" clip-rule="evenodd" d="M21.3917 151.142C22.0525 151.418 22.7683 151.585 23.4842 151.585C25.6317 151.585 27.6691 150.255 28.5501 148.149C29.7615 145.322 28.44 142.108 25.6317 140.89C22.8234 139.725 19.5746 141.055 18.4183 143.882C17.2619 146.708 18.5835 149.923 21.3917 151.142Z" fill="#FFD966"/>
<path id="Vector_35" fill-rule="evenodd" clip-rule="evenodd" d="M8.48346 197.963C8.81285 198.019 9.19715 198.075 9.52655 198.075C12.1067 198.075 14.4124 196.185 14.9065 193.572C15.4555 190.514 13.5341 187.624 10.5147 187.068C7.55019 186.456 4.69547 188.457 4.14649 191.459C4.09159 191.459 4.09159 191.459 4.09159 191.459C3.54261 194.517 5.51895 197.408 8.48346 197.963Z" fill="#FFD966"/>
<path id="Vector_36" fill-rule="evenodd" clip-rule="evenodd" d="M11.5043 181.738C11.983 181.849 12.5214 181.904 13.0001 181.904C15.6326 181.904 18.0856 180.239 18.8036 177.742C19.6412 174.8 17.7266 171.746 14.4958 170.969C11.3248 170.193 8.03419 171.969 7.19658 174.966C6.35896 177.908 8.27351 180.96 11.5043 181.738Z" fill="#FFD966"/>
<path id="Vector_37" fill-rule="evenodd" clip-rule="evenodd" d="M5.50005 246.585C5.55504 246.585 5.55504 246.585 5.61003 246.585C8.63456 246.53 11.0541 243.973 10.9991 240.917C10.9441 237.804 8.41459 235.414 5.39007 235.469C2.36554 235.525 -0.0540758 238.026 0.000919226 241.083C0.0559092 244.139 2.53052 246.585 5.50005 246.585Z" fill="#FFD966"/>
<path id="Vector_38" fill-rule="evenodd" clip-rule="evenodd" d="M399.582 396.805C397.437 399.031 397.491 402.538 399.636 404.708C400.736 405.766 402.111 406.266 403.486 406.266C404.916 406.266 406.346 405.709 407.446 404.596C409.536 402.426 409.536 398.864 407.336 396.75C405.191 394.579 401.671 394.635 399.582 396.805Z" fill="#FFD966"/>
<path id="Vector_39" fill-rule="evenodd" clip-rule="evenodd" d="M387.866 407.676C385.556 409.728 385.391 413.223 387.371 415.497C388.471 416.718 389.957 417.383 391.497 417.383C392.818 417.383 394.083 416.884 395.183 415.941C397.439 413.944 397.604 410.394 395.623 408.119C393.588 405.846 390.122 405.624 387.866 407.676Z" fill="#FFD966"/>
<path id="Vector_40" fill-rule="evenodd" clip-rule="evenodd" d="M363.468 426.424C360.939 428.09 360.225 431.588 361.929 434.087C362.973 435.697 364.732 436.585 366.491 436.585C367.536 436.585 368.635 436.252 369.57 435.641C372.099 433.92 372.758 430.477 371.054 427.923C369.35 425.369 365.942 424.702 363.468 426.424Z" fill="#FFD966"/>
<path id="Vector_41" fill-rule="evenodd" clip-rule="evenodd" d="M376.131 417.543C373.767 419.376 373.272 422.877 375.141 425.323C376.241 426.711 377.89 427.489 379.484 427.489C380.694 427.489 381.848 427.1 382.893 426.322C385.257 424.433 385.697 420.932 383.882 418.543C382.013 416.097 378.55 415.653 376.131 417.543Z" fill="#FFD966"/>
<path id="Vector_42" fill-rule="evenodd" clip-rule="evenodd" d="M410.322 384.97C408.344 387.303 408.618 390.804 410.927 392.805C411.971 393.749 413.236 394.138 414.5 394.138C416.039 394.138 417.578 393.471 418.678 392.194C420.657 389.859 420.382 386.358 418.073 384.358C415.764 382.357 412.301 382.635 410.322 384.97Z" fill="#FFD966"/>
<path id="Vector_43" fill-rule="evenodd" clip-rule="evenodd" d="M462.071 298.366C459.15 297.479 456.119 299.143 455.237 302.085C454.355 305.026 456.009 308.135 458.929 309.022C459.481 309.189 459.977 309.245 460.528 309.245C462.897 309.245 465.047 307.69 465.763 305.304C466.645 302.362 464.991 299.255 462.071 298.366Z" fill="#FFD966"/>
<path id="Vector_44" fill-rule="evenodd" clip-rule="evenodd" d="M465.692 282.095C462.724 281.426 459.812 283.265 459.152 286.275C458.438 289.285 460.306 292.294 463.274 292.963C463.713 293.019 464.098 293.075 464.482 293.075C467.01 293.075 469.263 291.346 469.868 288.727C470.527 285.717 468.659 282.763 465.692 282.095Z" fill="#FFD966"/>
<path id="Vector_45" fill-rule="evenodd" clip-rule="evenodd" d="M469.51 250.643C466.208 250.421 463.325 252.697 463.025 255.75C462.724 258.803 465.187 261.468 468.49 261.745C468.67 261.745 468.85 261.745 469.03 261.745C472.093 261.745 474.735 259.58 474.975 256.694C475.276 253.64 472.813 250.92 469.51 250.643Z" fill="#FFD966"/>
<path id="Vector_46" fill-rule="evenodd" clip-rule="evenodd" d="M427.771 370.966C425.352 369.136 421.888 369.691 420.074 372.131C418.26 374.569 418.81 378.062 421.229 379.891C422.218 380.612 423.373 381 424.527 381C426.177 381 427.826 380.168 428.926 378.727C430.74 376.287 430.19 372.796 427.771 370.966Z" fill="#FFD966"/>
<path id="Vector_47" fill-rule="evenodd" clip-rule="evenodd" d="M468.33 266.872C465.311 266.369 462.512 268.489 462.072 271.5C461.578 274.569 463.664 277.413 466.629 277.859C466.958 277.915 467.233 277.915 467.507 277.915C470.142 277.915 472.503 275.962 472.942 273.174C473.381 270.162 471.295 267.317 468.33 266.872Z" fill="#FFD966"/>
<path id="Vector_48" fill-rule="evenodd" clip-rule="evenodd" d="M457.146 313.632C454.026 312.577 450.545 314.021 449.405 316.908C448.204 319.74 449.765 322.96 452.885 324.015C453.545 324.293 454.266 324.404 454.986 324.404C457.386 324.404 459.727 323.016 460.627 320.795C461.767 317.908 460.207 314.743 457.146 313.632Z" fill="#FFD966"/>
<path id="Vector_49" fill-rule="evenodd" clip-rule="evenodd" d="M153.547 449.096C150.746 447.984 147.506 449.374 146.408 452.211C145.255 455.102 146.628 458.328 149.483 459.441C150.142 459.719 150.801 459.83 151.515 459.83C153.656 459.83 155.743 458.495 156.622 456.326C157.72 453.49 156.347 450.264 153.547 449.096Z" fill="#FFD966"/>
<path id="Vector_50" fill-rule="evenodd" clip-rule="evenodd" d="M450.791 328.953C448.031 327.675 444.773 328.898 443.504 331.73C442.234 334.509 443.448 337.786 446.209 339.064C446.927 339.397 447.7 339.564 448.472 339.564C450.57 339.564 452.613 338.398 453.496 336.342C454.766 333.564 453.552 330.231 450.791 328.953Z" fill="#FFD966"/>
<path id="Vector_51" fill-rule="evenodd" clip-rule="evenodd" d="M436.464 357.627C433.933 355.957 430.523 356.737 428.872 359.296C427.222 361.91 427.992 365.358 430.523 366.971C431.458 367.584 432.503 367.862 433.493 367.862C435.309 367.862 437.069 366.971 438.114 365.303C439.765 362.688 439.05 359.296 436.464 357.627Z" fill="#FFD966"/>
<path id="Vector_52" fill-rule="evenodd" clip-rule="evenodd" d="M444.111 343.269C441.473 341.825 438.119 342.769 436.69 345.491C435.206 348.157 436.195 351.546 438.889 353.046C439.714 353.49 440.593 353.713 441.473 353.713C443.451 353.713 445.32 352.658 446.31 350.824C447.794 348.102 446.805 344.769 444.111 343.269Z" fill="#FFD966"/>
<path id="Vector_53" fill-rule="evenodd" clip-rule="evenodd" d="M214.625 463.906C211.325 463.571 208.385 465.8 208.025 468.863C207.725 471.926 210.125 474.655 213.425 474.989C213.633 474.989 213.801 474.989 213.965 474.989C217.025 474.989 219.664 472.873 219.964 469.977C220.324 466.913 217.925 464.184 214.625 463.906Z" fill="#FFD966"/>
<path id="Vector_54" fill-rule="evenodd" clip-rule="evenodd" d="M199.409 461.942C196.435 461.385 193.571 463.446 193.076 466.508C192.58 469.516 194.563 472.411 197.591 472.912C197.536 472.912 197.536 472.912 197.536 472.912C197.867 472.968 198.197 472.968 198.528 472.968C201.116 472.968 203.484 471.075 203.924 468.346C204.42 465.339 202.437 462.443 199.409 461.942Z" fill="#FFD966"/>
<path id="Vector_55" fill-rule="evenodd" clip-rule="evenodd" d="M261.371 463.906C258.074 464.24 255.676 466.969 256.036 470.032C256.335 472.873 258.973 474.989 261.97 474.989C262.21 474.989 262.39 474.989 262.629 474.989C265.926 474.655 268.324 471.926 267.964 468.863C267.605 465.8 264.668 463.571 261.371 463.906Z" fill="#FFD966"/>
<path id="Vector_56" fill-rule="evenodd" clip-rule="evenodd" d="M188.401 1.13155C185.378 1.74501 183.509 4.70012 184.113 7.71182C184.663 10.3324 186.972 12.1172 189.5 12.1172C189.885 12.1172 190.27 12.1172 190.654 12.006C193.622 11.3926 195.491 8.43644 194.887 5.42575C194.282 2.41405 191.369 0.46251 188.401 1.13155Z" fill="#FFD966"/>
<path id="Vector_57" fill-rule="evenodd" clip-rule="evenodd" d="M246.307 464.887C243.268 464.998 240.893 467.61 241.004 470.666C241.059 473.666 243.545 476 246.472 476C246.583 476 246.638 476 246.693 476C249.732 475.889 252.107 473.333 251.996 470.277C251.941 467.221 249.345 464.776 246.307 464.887Z" fill="#FFD966"/>
<path id="Vector_58" fill-rule="evenodd" clip-rule="evenodd" d="M230.182 464.887C226.883 464.776 224.064 467.221 224.004 470.277C223.884 473.333 226.463 475.889 229.762 476C229.822 476 229.882 476 229.942 476C233.18 476 235.879 473.611 235.999 470.61C236.059 467.554 233.48 464.998 230.182 464.887Z" fill="#FFD966"/>
<path id="Vector_59" fill-rule="evenodd" clip-rule="evenodd" d="M168.803 454.032C165.679 453.086 162.254 454.754 161.293 457.648C160.271 460.597 162.014 463.714 165.138 464.66C165.799 464.826 166.399 464.882 167 464.882C169.524 464.938 171.927 463.379 172.708 461.043C173.729 458.094 171.987 454.978 168.803 454.032Z" fill="#FFD966"/>
<path id="Vector_60" fill-rule="evenodd" clip-rule="evenodd" d="M156.632 10.4335C153.774 11.4896 152.29 14.6569 153.334 17.5463C154.159 19.8243 156.247 21.2129 158.5 21.2129C159.159 21.2129 159.764 21.1018 160.368 20.8794C163.226 19.8799 164.71 16.657 163.666 13.7676C162.677 10.8782 159.489 9.37837 156.632 10.4335Z" fill="#FFD966"/>
<path id="Vector_61" fill-rule="evenodd" clip-rule="evenodd" d="M172.379 5.25294C169.133 6.08773 167.33 9.20353 168.232 12.1536C168.953 14.6013 171.357 16.1597 174.002 16.1597C174.543 16.1597 175.084 16.1042 175.625 15.993C178.811 15.1026 180.674 12.0424 179.773 9.09236C178.871 6.14332 175.565 4.41816 172.379 5.25294Z" fill="#FFD966"/>
<path id="Vector_62" fill-rule="evenodd" clip-rule="evenodd" d="M183.823 458.977C180.849 458.253 177.875 460.09 177.159 463.038C176.443 466.042 178.206 469.046 181.18 469.769C181.62 469.881 182.061 469.936 182.502 469.936C184.98 469.936 187.238 468.212 187.844 465.709C188.56 462.704 186.742 459.7 183.823 458.977Z" fill="#FFD966"/>
<path id="Vector_63" fill-rule="evenodd" clip-rule="evenodd" d="M292.191 458.977C289.222 459.7 287.407 462.76 288.177 465.709C288.782 468.268 290.981 469.936 293.456 469.936C293.896 469.936 294.335 469.881 294.83 469.769C297.744 469.046 299.559 466.042 298.844 463.038C298.074 460.09 295.105 458.253 292.191 458.977Z" fill="#FFD966"/>
<path id="Vector_64" fill-rule="evenodd" clip-rule="evenodd" d="M322.453 449.103C319.653 450.27 318.28 453.494 319.378 456.328C320.257 458.496 322.343 459.83 324.485 459.83C325.199 459.83 325.857 459.719 326.571 459.441C329.372 458.273 330.744 455.05 329.591 452.216C328.438 449.325 325.254 447.991 322.453 449.103Z" fill="#FFD966"/>
<path id="Vector_65" fill-rule="evenodd" clip-rule="evenodd" d="M336.13 442.191C333.381 443.526 332.226 446.862 333.546 449.642C334.536 451.588 336.46 452.755 338.55 452.755C339.319 452.755 340.144 452.589 340.914 452.2C343.663 450.865 344.763 447.529 343.443 444.749C342.124 442.024 338.88 440.857 336.13 442.191Z" fill="#FFD966"/>
<path id="Vector_66" fill-rule="evenodd" clip-rule="evenodd" d="M276.958 461.944C273.718 462.445 271.498 465.34 272.098 468.346C272.578 471.075 275.158 472.968 277.978 472.968C278.338 472.968 278.698 472.913 279.058 472.857C282.298 472.356 284.457 469.46 283.917 466.454C283.318 463.391 280.258 461.387 276.958 461.944Z" fill="#FFD966"/>
<path id="Vector_67" fill-rule="evenodd" clip-rule="evenodd" d="M350.031 435.29C347.151 436.846 346.132 440.236 347.811 442.903C348.891 444.68 350.931 445.681 353.03 445.681C354.05 445.681 355.07 445.458 355.969 444.958C358.849 443.403 359.869 440.013 358.189 437.346C356.569 434.679 352.91 433.791 350.031 435.29Z" fill="#FFD966"/>
<path id="Vector_68" fill-rule="evenodd" clip-rule="evenodd" d="M307.197 454.037C304.013 454.982 302.271 458.152 303.292 461.045C304.133 463.381 306.476 464.883 309 464.883C309.601 464.883 310.262 464.827 310.862 464.661C313.987 463.715 315.729 460.544 314.708 457.652C313.686 454.704 310.322 453.091 307.197 454.037Z" fill="#FFD966"/>
</g>
-->
<g id="Moon">
<path id="Vector_69" d="M398 90C422.853 90 443 69.8528 443 45C443 20.1472 422.853 -4.42355e-08 398 -2.8497e-08C373.147 -1.27586e-08 353 20.1472 353 45C353 69.8528 373.147 90 398 90Z" fill="#E6E6E6"/>
<path id="Vector_70" d="M389.38 19.3847C392.232 19.3847 394.544 17.0727 394.544 14.2207C394.544 11.3688 392.232 9.05679 389.38 9.05679C386.528 9.05679 384.216 11.3688 384.216 14.2207C384.216 17.0727 386.528 19.3847 389.38 19.3847Z" fill="#CBCBCB"/>
<path id="Vector_71" d="M398.232 71.024C401.084 71.024 403.396 68.712 403.396 65.86C403.396 63.0081 401.084 60.6961 398.232 60.6961C395.38 60.6961 393.068 63.0081 393.068 65.86C393.068 68.712 395.38 71.024 398.232 71.024Z" fill="#CBCBCB"/>
<path id="Vector_72" d="M418.15 40.7781C420.187 40.7781 421.839 39.1267 421.839 37.0896C421.839 35.0524 420.187 33.401 418.15 33.401C416.113 33.401 414.462 35.0524 414.462 37.0896C414.462 39.1267 416.113 40.7781 418.15 40.7781Z" fill="#CBCBCB"/>
<path id="Vector_73" d="M376.101 60.6961C382.62 60.6961 387.904 55.4116 387.904 48.8929C387.904 42.3741 382.62 37.0896 376.101 37.0896C369.582 37.0896 364.298 42.3741 364.298 48.8929C364.298 55.4116 369.582 60.6961 376.101 60.6961Z" fill="#CBCBCB"/>
</g>
</g>
</svg>
