<svg width="197" height="112" viewBox="0 0 197 112" fill="none" xmlns="http://www.w3.org/2000/svg">
<path d="M43.6923 32.4598C43.5651 31.7118 43.3692 30.98 43.1077 30.2759C37.2826 14.5845 0.125939 15.1977 0.125939 15.1977L0.0822189 10.5624C0.0822189 10.5624 16.0153 8.95245 38.7067 2.37742C59.1217 -3.54559 77.6884 19.782 81.2121 24.5218C81.6046 25.0552 81.813 25.351 81.813 25.351C74.1828 49.095 43.6923 32.4598 43.6923 32.4598Z" fill="#AFC0E0"/>
<path opacity="0.2" d="M81.1836 27.0796C81.4051 26.5317 81.6158 25.9663 81.8079 25.366C81.8079 25.366 81.5995 25.076 81.207 24.5368C77.6833 19.7971 59.1166 -3.53057 38.7015 2.39244C16.0101 8.96748 0.0821656 10.5627 0.0821656 10.5627L0.106752 13.1694C0.106752 13.1694 16.0399 11.5741 38.7312 4.98444C59.0517 -0.914324 77.5477 22.1863 81.1836 27.0796Z" fill="white"/>
<path d="M39.7221 110.598C16.9106 104.438 0.955505 103.152 0.955505 103.152L0.911702 98.5081C0.911702 98.5081 39.7497 98.4337 43.926 81.5416C44.0214 81.1757 44.0963 80.8035 44.15 80.4273C44.15 80.4273 74.3211 63.2111 82.3927 86.8158C82.3927 86.8158 82.2342 87.0567 81.9247 87.4917C78.7956 91.9088 60.4831 116.197 39.7221 110.598Z" fill="#AFC0E0"/>
<path opacity="0.1" d="M43.6924 32.4598C43.5652 31.7118 43.3693 30.98 43.1077 30.2759C55.6587 27.3106 68.3938 25.3873 81.2069 24.5218C81.5994 25.0552 81.8077 25.351 81.8077 25.351C74.1828 49.095 43.6924 32.4598 43.6924 32.4598Z" fill="black"/>
<path opacity="0.1" d="M81.9194 87.5005C69.1275 86.6559 56.4162 84.6661 43.9102 81.5505C44.0057 81.1846 44.0805 80.8124 44.1343 80.4362C44.1343 80.4362 74.3054 63.2201 82.3769 86.8247C82.3874 86.8159 82.2289 87.0568 81.9194 87.5005Z" fill="black"/>
<path d="M38.3826 79.2439C32.5447 77.6642 26.5531 75.8047 20.4077 73.6655C20.4077 73.6655 10.503 63.3314 20.0718 38.054C20.0718 38.054 26.4521 35.4774 37.3128 32.6076C61.1927 26.2899 106.74 18.5534 153.741 33.6784C167.871 38.1812 181.433 44.6426 194.106 52.9091C194.106 52.9091 180.445 66.338 154.152 76.3479C127.858 86.3578 88.9261 92.9371 38.3826 79.2439Z" fill="#E3E8F4"/>
<path d="M97.8731 55.9332C97.982 67.4807 106.522 76.7621 116.948 76.6638C127.373 76.5654 135.737 67.1246 135.628 55.5771C135.519 44.0296 126.979 34.7482 116.553 34.8466C106.128 34.9449 97.7642 44.3857 97.8731 55.9332Z" fill="#AFC0E0"/>
<path d="M116.88 70.5836C114.345 70.6075 111.854 69.8335 109.698 68.3518C107.541 66.8701 105.808 64.7416 104.699 62.2138C103.591 59.686 103.152 56.863 103.435 54.073C103.718 51.283 104.71 48.6408 106.297 46.4538C107.075 45.3863 107.982 44.4426 108.993 43.6493C109.444 43.293 109.916 42.9688 110.404 42.6785C112.31 41.5483 114.436 40.9482 116.6 40.9298C116.708 40.9288 116.814 40.9278 116.919 40.9268C119.783 40.9758 122.559 42.0394 124.84 43.9616C127.121 45.8838 128.789 48.5636 129.597 51.6084C129.898 52.771 130.074 53.9687 130.121 55.1766L130.125 55.6202C130.144 57.568 129.817 59.5002 129.162 61.3064C128.507 63.1126 127.536 64.7575 126.306 66.1471C125.076 67.5366 123.611 68.6437 121.993 69.4049C120.376 70.1661 118.638 70.5667 116.88 70.5836Z" fill="#6C63FF"/>
<path d="M154.152 76.345C143.674 52.7192 153.749 33.6637 153.749 33.6637C167.876 38.1718 181.436 44.6382 194.106 52.9091C194.106 52.9091 180.445 66.338 154.152 76.345Z" fill="#AFC0E0"/>
<path d="M38.3827 79.2439C34.4296 78.1719 30.4078 76.974 26.3171 75.6503C24.3661 75.0225 22.3989 74.3599 20.4156 73.6625C20.4156 73.6625 10.511 63.3284 20.0797 38.051C20.0797 38.051 22.1514 37.2141 25.9427 35.9522C28.8066 35.0086 32.6462 33.8309 37.3207 32.5958C37.3207 32.5958 33.796 42.0056 33.9215 55.3132C33.9736 63.5344 35.4896 71.6666 38.3827 79.2439V79.2439Z" fill="#AFC0E0"/>
<path d="M26.3171 75.6503C24.3661 75.0225 22.3989 74.3599 20.4156 73.6625C20.4156 73.6625 10.511 63.3284 20.0798 38.051C20.0798 38.051 22.1514 37.2141 25.9427 35.9522C25.9427 35.9493 19.5172 61.6816 26.3171 75.6503Z" fill="#E3E8F4"/>
<path opacity="0.2" d="M129.615 51.6169L129.594 51.585L116.937 40.9324C116.832 40.9334 116.727 40.9344 116.618 40.9354C114.455 40.9539 112.329 41.554 110.423 42.6841L130.139 55.191L129.615 51.6169Z" fill="white"/>
<path opacity="0.2" d="M118.316 55.1624L106.307 46.4537C107.086 45.3862 107.993 44.4425 109.003 43.6492L119.286 54.0614L118.316 55.1624Z" fill="white"/>
<path opacity="0.2" d="M22.4876 44.0123C22.4876 44.0123 28.8687 41.2323 39.7249 38.1386C63.6034 31.3283 109.146 23.001 156.161 39.3848C168.881 43.7881 181.149 49.9018 192.729 57.6089C195.21 55.4494 196.473 54.1027 196.473 54.1027C183.797 45.1567 170.233 38.1603 156.103 33.2798C109.088 16.896 63.5458 25.2233 39.6674 32.0336C28.8111 35.1273 22.43 37.9073 22.43 37.9073C18.6599 48.6994 17.9261 56.97 18.4156 63.0299C18.6961 57.8463 19.857 51.5436 22.4876 44.0123Z" fill="white"/>
</svg>
