<svg width="350" height="350" viewBox="0 0 350 350" fill="none" xmlns="http://www.w3.org/2000/svg">
<g id="Satellite_Orbit">

<path id="Vector" fill-rule="evenodd" clip-rule="evenodd" d="M44.0959 285.27C42.5637 286.586 42.4178 288.925 43.7313 290.424C44.4604 291.265 45.4448 291.667 46.4656 291.667C47.3406 291.667 48.1792 291.374 48.8719 290.79C50.404 289.437 50.5499 287.134 49.2374 285.636C47.8875 284.101 45.5906 283.954 44.0959 285.27Z" fill="#BDD7EE"/>
<path id="Vector_2" fill-rule="evenodd" clip-rule="evenodd" d="M55.6003 54.6877C56.5127 54.6877 57.4259 54.324 58.1569 53.6341C59.5815 52.2523 59.618 49.9272 58.1934 48.5098C56.8053 47.0561 54.5047 47.0196 53.0437 48.4369C51.6191 49.8178 51.5826 52.1438 52.9698 53.5612C53.7008 54.2876 54.6505 54.6877 55.6003 54.6877Z" fill="#BDD7EE"/>
<path id="Vector_3" fill-rule="evenodd" clip-rule="evenodd" d="M45.591 65.6252C46.5753 65.6252 47.5962 65.1886 48.3262 64.3519C49.6387 62.8608 49.4929 60.5693 47.9607 59.224C46.4295 57.9152 44.1326 58.0601 42.8201 59.5877C41.5067 61.1153 41.6526 63.4067 43.1847 64.7165C43.8774 65.3344 44.716 65.6252 45.591 65.6252Z" fill="#BDD7EE"/>
<path id="Vector_4" fill-rule="evenodd" clip-rule="evenodd" d="M53.9069 295.515C52.4868 296.968 52.5233 299.257 53.9798 300.675C54.7081 301.329 55.6177 301.693 56.5283 301.693C57.4753 301.693 58.4214 301.292 59.1132 300.566C60.5332 299.149 60.4968 296.823 59.0402 295.442C57.5837 294.025 55.2905 294.061 53.9069 295.515Z" fill="#BDD7EE"/>
<path id="Vector_5" fill-rule="evenodd" clip-rule="evenodd" d="M35.2119 273.25C33.5704 274.417 33.2423 276.716 34.4455 278.358C35.1391 279.307 36.2692 279.818 37.3639 279.818C38.1295 279.818 38.8952 279.599 39.5514 279.124C41.1565 277.92 41.4846 275.621 40.3179 274.015C39.1139 272.374 36.8161 272.046 35.2119 273.25Z" fill="#BDD7EE"/>
<path id="Vector_6" fill-rule="evenodd" clip-rule="evenodd" d="M66.5233 45.573C67.3619 45.573 68.163 45.3178 68.8557 44.7336C70.3851 43.4922 70.6403 41.1552 69.3652 39.6221C68.0901 38.0526 65.7951 37.8338 64.2283 39.1108C62.6615 40.3887 62.4436 42.6892 63.7188 44.2587C64.447 45.1346 65.5034 45.573 66.5233 45.573Z" fill="#BDD7EE"/>
<path id="Vector_7" fill-rule="evenodd" clip-rule="evenodd" d="M27.2672 261.217C25.55 262.276 25.0023 264.538 26.0614 266.253C26.7559 267.348 27.9244 267.969 29.1667 267.969C29.8247 267.969 30.4819 267.787 31.0661 267.421C32.7833 266.399 33.3311 264.137 32.272 262.422C31.2129 260.706 28.9844 260.159 27.2672 261.217Z" fill="#BDD7EE"/>
<path id="Vector_8" fill-rule="evenodd" clip-rule="evenodd" d="M25.1445 249.93C24.234 248.111 22.0474 247.419 20.2254 248.292C18.4399 249.203 17.7116 251.387 18.6222 253.207C19.2784 254.48 20.5535 255.208 21.8651 255.208C22.4485 255.208 22.9953 255.063 23.5048 254.808C25.3268 253.898 26.0195 251.714 25.1445 249.93Z" fill="#BDD7EE"/>
<path id="Vector_9" fill-rule="evenodd" clip-rule="evenodd" d="M35.2005 75.8699C35.8568 76.3439 36.6224 76.5627 37.3516 76.5627C38.4818 76.5627 39.612 76.0522 40.3047 75.0679C41.5078 73.4281 41.1432 71.1677 39.5026 69.9646C37.8984 68.7989 35.6016 69.127 34.4349 70.7667C33.2318 72.3709 33.5963 74.6668 35.2005 75.8699Z" fill="#BDD7EE"/>
<path id="Vector_10" fill-rule="evenodd" clip-rule="evenodd" d="M118.793 332.904C116.93 332.212 114.811 333.195 114.154 335.09C113.46 336.985 114.446 339.062 116.345 339.755C116.747 339.901 117.149 339.974 117.55 339.974C119.048 339.974 120.472 339.062 121.02 337.569C121.677 335.674 120.691 333.596 118.793 332.904Z" fill="#BDD7EE"/>
<path id="Vector_11" fill-rule="evenodd" clip-rule="evenodd" d="M105.437 327.546C103.615 326.708 101.431 327.51 100.594 329.332C99.7564 331.153 100.558 333.339 102.378 334.177C102.887 334.396 103.398 334.505 103.907 334.505C105.291 334.505 106.601 333.74 107.221 332.392C108.059 330.57 107.258 328.384 105.437 327.546Z" fill="#BDD7EE"/>
<path id="Vector_12" fill-rule="evenodd" clip-rule="evenodd" d="M103.907 21.8752C104.417 21.8752 104.927 21.7658 105.437 21.5471C107.258 20.673 108.059 18.5229 107.221 16.7018C106.347 14.8798 104.199 14.0777 102.378 14.9162C100.558 15.7903 99.7564 17.9405 100.594 19.7625C101.213 21.1105 102.524 21.8752 103.907 21.8752Z" fill="#BDD7EE"/>
<path id="Vector_13" fill-rule="evenodd" clip-rule="evenodd" d="M116.665 16.4065C117.102 16.4065 117.503 16.3336 117.94 16.1878C119.798 15.496 120.781 13.3823 120.089 11.523C119.397 9.62803 117.32 8.64457 115.426 9.33637C113.532 10.0291 112.549 12.1063 113.241 14.0012C113.788 15.496 115.208 16.4065 116.665 16.4065Z" fill="#BDD7EE"/>
<path id="Vector_14" fill-rule="evenodd" clip-rule="evenodd" d="M92.9279 321.302C91.177 320.316 88.9513 320.936 87.966 322.688C86.9816 324.44 87.6014 326.666 89.3523 327.651C89.9001 327.979 90.5199 328.125 91.1406 328.125C92.4175 328.125 93.6581 327.468 94.3143 326.3C95.2996 324.549 94.7153 322.323 92.9279 321.302Z" fill="#BDD7EE"/>
<path id="Vector_15" fill-rule="evenodd" clip-rule="evenodd" d="M69.7516 305.226C68.2157 303.986 65.876 304.205 64.6337 305.773C63.354 307.305 63.5737 309.64 65.1451 310.88C65.8032 311.463 66.6444 311.719 67.4483 311.719C68.5083 311.719 69.5684 311.245 70.2629 310.369C71.5426 308.801 71.3229 306.502 69.7516 305.226Z" fill="#BDD7EE"/>
<path id="Vector_16" fill-rule="evenodd" clip-rule="evenodd" d="M78.385 36.4586C79.1142 36.4586 79.8069 36.2407 80.4631 35.8041C82.1029 34.6766 82.5403 32.3862 81.3737 30.7501C80.2444 29.0767 77.984 28.6774 76.3078 29.804C74.6672 30.9679 74.2297 33.222 75.3964 34.8954C76.0891 35.9135 77.2183 36.4586 78.385 36.4586Z" fill="#BDD7EE"/>
<path id="Vector_17" fill-rule="evenodd" clip-rule="evenodd" d="M90.2466 29.1669C90.8655 29.1669 91.4834 29.021 92.0294 28.6929C93.7767 27.673 94.3956 25.4499 93.413 23.6999C92.394 21.9508 90.1737 21.3675 88.4265 22.3519C86.6801 23.3363 86.0612 25.5958 87.0802 27.3084C87.7355 28.5106 88.9724 29.1669 90.2466 29.1669Z" fill="#BDD7EE"/>
<path id="Vector_18" fill-rule="evenodd" clip-rule="evenodd" d="M80.4442 314.179C78.768 313.052 76.5086 313.451 75.3784 315.125C74.2481 316.797 74.6492 319.051 76.3263 320.179C76.9461 320.615 77.6743 320.833 78.4035 320.833C79.5337 320.833 80.6994 320.252 81.3922 319.234C82.5224 317.561 82.1213 315.306 80.4442 314.179Z" fill="#BDD7EE"/>
<path id="Vector_19" fill-rule="evenodd" clip-rule="evenodd" d="M19.802 237.439C19.0372 235.575 16.9263 234.66 15.0697 235.429C13.1775 236.16 12.267 238.28 13.0317 240.181C13.6141 241.607 14.9603 242.448 16.4168 242.448C16.8534 242.448 17.3264 242.375 17.763 242.192C19.6197 241.461 20.5302 239.303 19.802 237.439Z" fill="#BDD7EE"/>
<path id="Vector_20" fill-rule="evenodd" clip-rule="evenodd" d="M27.2608 88.7762C27.8797 89.1408 28.535 89.3231 29.153 89.3231C30.3907 89.3231 31.592 88.7033 32.2838 87.574C33.3393 85.824 32.7569 83.601 31.0461 82.5446C29.3353 81.5238 27.115 82.0707 26.0595 83.7833C25.004 85.4968 25.55 87.7199 27.2608 88.7762Z" fill="#BDD7EE"/>
<path id="Vector_21" fill-rule="evenodd" clip-rule="evenodd" d="M130.327 11.8493C130.655 11.8493 130.983 11.8128 131.275 11.7399C133.242 11.1921 134.373 9.18417 133.862 7.24915C133.315 5.31321 131.311 4.14471 129.379 4.6925C127.447 5.20383 126.281 7.21178 126.828 9.18417C127.265 10.7902 128.723 11.8493 130.327 11.8493Z" fill="#BDD7EE"/>
<path id="Vector_22" fill-rule="evenodd" clip-rule="evenodd" d="M20.2406 100.807C20.7875 101.063 21.3344 101.172 21.8822 101.172C23.2311 101.172 24.5081 100.442 25.1279 99.1641C26.0402 97.3394 25.3102 95.1491 23.4872 94.2732C21.6999 93.3609 19.5115 94.0909 18.5991 95.9157C17.7241 97.7049 18.4533 99.8942 20.2406 100.807Z" fill="#BDD7EE"/>
<path id="Vector_23" fill-rule="evenodd" clip-rule="evenodd" d="M14.1737 114.59C14.6103 114.735 15.0478 114.844 15.4844 114.844C16.94 114.844 18.3235 113.971 18.9059 112.516L18.8695 112.516C19.6342 110.66 18.7236 108.55 16.8315 107.823C14.9748 107.058 12.863 107.968 12.1357 109.86C12.0992 109.86 12.0992 109.86 12.0992 109.86C11.3709 111.715 12.2806 113.825 14.1737 114.59Z" fill="#BDD7EE"/>
<path id="Vector_24" fill-rule="evenodd" clip-rule="evenodd" d="M3.79249 185.937C5.79587 185.828 7.36175 184.115 7.28883 182.112C7.18037 180.109 5.5042 178.542 3.46527 178.651C1.4619 178.724 -0.103975 180.437 0.00539955 182.44C0.0783159 184.407 1.68066 185.937 3.64758 185.937C3.68403 185.937 3.75604 185.937 3.79249 185.937Z" fill="#BDD7EE"/>
<path id="Vector_25" fill-rule="evenodd" clip-rule="evenodd" d="M9.89647 128.334C10.2255 128.443 10.5901 128.516 10.9191 128.516C12.4896 128.516 13.9515 127.497 14.4264 125.894C15.0106 123.966 13.9142 121.963 11.9782 121.381C10.0423 120.798 8.03346 121.89 7.44921 123.82C6.86406 125.75 7.96054 127.751 9.89647 128.334Z" fill="#BDD7EE"/>
<path id="Vector_26" fill-rule="evenodd" clip-rule="evenodd" d="M10.8516 209.783C10.4497 207.814 8.51557 206.576 6.5441 206.977C4.57353 207.413 3.29566 209.346 3.73316 211.314C4.09865 213.027 5.59527 214.193 7.31063 214.193C7.52938 214.193 7.7855 214.156 8.0407 214.12C10.0486 213.682 11.2891 211.751 10.8516 209.783Z" fill="#BDD7EE"/>
<path id="Vector_27" fill-rule="evenodd" clip-rule="evenodd" d="M14.423 224.08C13.8387 222.151 11.7952 221.059 9.86112 221.641C7.92701 222.26 6.8679 224.299 7.45214 226.191C7.92701 227.757 9.38624 228.776 10.9558 228.776C11.2839 228.776 11.6494 228.74 12.014 228.63C13.949 228.048 15.0072 226.01 14.423 224.08Z" fill="#BDD7EE"/>
<path id="Vector_28" fill-rule="evenodd" clip-rule="evenodd" d="M5.92445 200.484C7.92327 200.229 9.34058 198.404 9.08628 196.397C8.83199 194.39 7.01457 193.004 5.01575 193.259C3.01602 193.514 1.5987 195.339 1.853 197.346C2.10821 199.171 3.67044 200.521 5.45142 200.521C5.63371 200.521 5.77862 200.521 5.92445 200.484Z" fill="#BDD7EE"/>
<path id="Vector_29" fill-rule="evenodd" clip-rule="evenodd" d="M3.49995 171.354C3.53641 171.354 3.60933 171.354 3.64578 171.354C5.57716 171.354 7.21596 169.824 7.28888 167.855C7.36179 165.851 5.795 164.138 3.79162 164.065C1.78733 163.992 0.0756058 165.559 0.00268942 167.564C-0.070227 169.569 1.49657 171.245 3.49995 171.354Z" fill="#BDD7EE"/>
<path id="Vector_30" fill-rule="evenodd" clip-rule="evenodd" d="M6.528 142.115C6.78229 142.151 7.03749 142.188 7.2927 142.188C8.96887 142.188 10.4992 141.022 10.8638 139.308C11.2639 137.341 10.0252 135.408 8.02185 134.972C6.09048 134.571 4.12267 135.809 3.72254 137.778C3.3215 139.746 4.56017 141.677 6.528 142.115Z" fill="#BDD7EE"/>
<path id="Vector_31" fill-rule="evenodd" clip-rule="evenodd" d="M5.01844 156.771C5.16427 156.771 5.31011 156.771 5.45503 156.771C7.2743 156.771 8.83836 155.421 9.09356 153.596C9.3114 151.589 7.89316 149.765 5.92806 149.509C3.92742 149.253 2.10817 150.677 1.85297 152.684C1.59867 154.691 3.0178 156.516 5.01844 156.771Z" fill="#BDD7EE"/>
<path id="Vector_32" fill-rule="evenodd" clip-rule="evenodd" d="M256.209 323.09C254.426 324.074 253.771 326.264 254.753 328.051C255.408 329.255 256.645 329.948 257.954 329.948C258.536 329.948 259.119 329.802 259.664 329.51C261.447 328.562 262.101 326.337 261.156 324.586C260.173 322.797 257.99 322.141 256.209 323.09Z" fill="#BDD7EE"/>
<path id="Vector_33" fill-rule="evenodd" clip-rule="evenodd" d="M290.989 298.114C289.53 299.464 289.457 301.799 290.807 303.259C291.537 304.026 292.521 304.427 293.507 304.427C294.383 304.427 295.258 304.099 295.988 303.442C297.447 302.092 297.52 299.793 296.17 298.297C294.784 296.837 292.485 296.728 290.989 298.114Z" fill="#BDD7EE"/>
<path id="Vector_34" fill-rule="evenodd" clip-rule="evenodd" d="M300.811 288.309C299.465 289.805 299.575 292.102 301.065 293.452C301.756 294.109 302.628 294.401 303.5 294.401C304.518 294.401 305.5 294 306.19 293.197C307.572 291.738 307.462 289.403 305.972 288.054C304.482 286.704 302.155 286.813 300.811 288.309Z" fill="#BDD7EE"/>
<path id="Vector_35" fill-rule="evenodd" clip-rule="evenodd" d="M280.288 307.02C278.721 308.259 278.429 310.554 279.704 312.121C280.397 313.068 281.454 313.542 282.547 313.542C283.349 313.542 284.151 313.286 284.807 312.74C286.374 311.501 286.666 309.206 285.426 307.639C284.188 306.072 281.891 305.782 280.288 307.02Z" fill="#BDD7EE"/>
<path id="Vector_36" fill-rule="evenodd" clip-rule="evenodd" d="M268.692 315.981L268.692 315.944C267.016 317.075 266.542 319.337 267.672 321.015C268.365 322.073 269.531 322.656 270.697 322.656C271.39 322.656 272.083 322.474 272.703 322.073C274.379 320.942 274.853 318.68 273.759 317.002C272.63 315.324 270.369 314.85 268.692 315.981Z" fill="#BDD7EE"/>
<path id="Vector_37" fill-rule="evenodd" clip-rule="evenodd" d="M335.922 238.189C334.066 237.387 331.919 238.262 331.154 240.119C330.354 241.94 331.227 244.089 333.083 244.891C333.557 245.073 334.03 245.182 334.503 245.182C335.922 245.182 337.269 244.345 337.851 242.96C338.652 241.103 337.778 238.953 335.922 238.189Z" fill="#BDD7EE"/>
<path id="Vector_38" fill-rule="evenodd" clip-rule="evenodd" d="M132.187 337.374C130.255 336.827 128.249 337.995 127.739 339.931C127.192 341.903 128.359 343.874 130.291 344.422C130.619 344.495 130.947 344.531 131.239 344.531C132.843 344.531 134.338 343.472 134.775 341.83C135.286 339.894 134.119 337.886 132.187 337.374Z" fill="#BDD7EE"/>
<path id="Vector_39" fill-rule="evenodd" clip-rule="evenodd" d="M341.091 224.399C339.198 223.779 337.123 224.801 336.504 226.734C335.886 228.629 336.942 230.708 338.834 231.328C339.234 231.438 339.598 231.51 339.962 231.51C341.491 231.51 342.946 230.526 343.419 228.994C343.456 228.994 343.456 228.994 343.456 228.994C344.038 227.098 343.019 225.02 341.091 224.399Z" fill="#BDD7EE"/>
<path id="Vector_40" fill-rule="evenodd" clip-rule="evenodd" d="M346.9 196.003C344.897 195.711 343.038 197.096 342.747 199.1C342.456 201.069 343.84 202.927 345.844 203.219C346.026 203.255 346.208 203.255 346.354 203.255C348.139 203.255 349.705 201.943 349.961 200.157C350.251 198.153 348.903 196.294 346.9 196.003Z" fill="#BDD7EE"/>
<path id="Vector_41" fill-rule="evenodd" clip-rule="evenodd" d="M344.468 210.636C342.502 210.2 340.536 211.4 340.062 213.364C339.625 215.328 340.826 217.293 342.793 217.729C343.048 217.802 343.339 217.839 343.631 217.839C345.27 217.839 346.763 216.711 347.163 215.038C347.637 213.073 346.398 211.109 344.468 210.636Z" fill="#BDD7EE"/>
<path id="Vector_42" fill-rule="evenodd" clip-rule="evenodd" d="M322.804 263.998C321.088 262.905 318.862 263.379 317.766 265.091C316.67 266.804 317.182 269.027 318.861 270.12C319.482 270.521 320.139 270.703 320.833 270.703C322.038 270.703 323.206 270.12 323.9 269.027C324.996 267.314 324.484 265.091 322.804 263.998Z" fill="#BDD7EE"/>
<path id="Vector_43" fill-rule="evenodd" clip-rule="evenodd" d="M329.829 251.988C328.042 251.038 325.852 251.733 324.904 253.522C323.955 255.275 324.648 257.503 326.436 258.452C326.947 258.745 327.531 258.854 328.114 258.854C329.428 258.854 330.705 258.161 331.361 256.918C332.273 255.129 331.616 252.938 329.829 251.988Z" fill="#BDD7EE"/>
<path id="Vector_44" fill-rule="evenodd" clip-rule="evenodd" d="M314.844 275.998C313.24 274.796 310.979 275.088 309.739 276.69C308.498 278.292 308.827 280.55 310.432 281.787C311.088 282.297 311.854 282.552 312.62 282.552C313.714 282.552 314.808 282.043 315.538 281.132C316.741 279.53 316.449 277.236 314.844 275.998Z" fill="#BDD7EE"/>
<path id="Vector_45" fill-rule="evenodd" clip-rule="evenodd" d="M159.853 342.724C157.847 342.541 156.058 344.003 155.876 346.014C155.694 348.026 157.153 349.817 159.16 350C159.269 350 159.379 350 159.525 350C161.386 350 162.954 348.574 163.137 346.71C163.319 344.698 161.86 342.907 159.853 342.724Z" fill="#BDD7EE"/>
<path id="Vector_46" fill-rule="evenodd" clip-rule="evenodd" d="M174.125 342.708C172.12 342.708 170.443 344.304 170.443 346.336C170.407 348.331 172.047 349.964 174.052 350L174.088 350C176.093 350 177.698 348.368 177.734 346.372C177.734 344.377 176.13 342.745 174.125 342.708Z" fill="#BDD7EE"/>
<path id="Vector_47" fill-rule="evenodd" clip-rule="evenodd" d="M159.487 7.29193C159.596 7.29193 159.742 7.29193 159.851 7.29193C161.858 7.10964 163.318 5.31862 163.135 3.30977C162.953 1.30001 161.165 -0.197516 159.159 0.0212333C157.152 0.204436 155.692 1.99454 155.875 4.00339C156.057 5.90378 157.626 7.29193 159.487 7.29193Z" fill="#BDD7EE"/>
<path id="Vector_48" fill-rule="evenodd" clip-rule="evenodd" d="M146.47 340.03C144.504 339.662 142.611 341.136 142.247 343.346C141.882 345.557 143.193 347.727 145.195 348.095C145.413 348.136 145.632 348.177 145.814 348.177C147.562 348.177 149.09 346.785 149.418 344.82C149.782 342.569 148.435 340.44 146.47 340.03Z" fill="#BDD7EE"/>
<path id="Vector_49" fill-rule="evenodd" clip-rule="evenodd" d="M188.395 342.718C186.386 342.864 184.887 344.611 185.034 346.614C185.18 348.543 186.787 350 188.651 350C188.761 350 188.834 350 188.944 350C190.954 349.818 192.452 348.07 192.305 346.068C192.16 344.065 190.405 342.572 188.395 342.718Z" fill="#BDD7EE"/>
<path id="Vector_50" fill-rule="evenodd" clip-rule="evenodd" d="M144.908 9.11485C145.127 9.11485 145.345 9.11485 145.564 9.07839C147.568 8.7129 148.844 6.81433 148.516 4.80548C148.152 2.834 146.257 1.51876 144.252 1.88426C142.284 2.24975 140.972 4.14831 141.337 6.12071C141.665 7.87344 143.195 9.11485 144.908 9.11485Z" fill="#BDD7EE"/>
<path id="Vector_51" fill-rule="evenodd" clip-rule="evenodd" d="M230.323 333.792C228.427 334.447 227.406 336.52 228.062 338.412C228.573 339.939 229.995 340.885 231.527 340.885C231.892 340.885 232.293 340.812 232.695 340.703C234.591 340.049 235.613 337.975 234.956 336.084C234.299 334.156 232.257 333.137 230.323 333.792Z" fill="#BDD7EE"/>
<path id="Vector_52" fill-rule="evenodd" clip-rule="evenodd" d="M243.702 329.362C241.877 330.165 241.036 332.317 241.84 334.14C242.424 335.526 243.775 336.328 245.162 336.328C245.674 336.328 246.149 336.219 246.623 336.036C248.485 335.234 249.326 333.082 248.522 331.222C247.719 329.362 245.564 328.523 243.702 329.362Z" fill="#BDD7EE"/>
<path id="Vector_53" fill-rule="evenodd" clip-rule="evenodd" d="M202.688 340.934C200.68 341.261 199.329 343.117 199.658 345.119C199.95 346.903 201.483 348.177 203.273 348.177C203.455 348.177 203.638 348.177 203.82 348.141C205.828 347.813 207.18 345.957 206.851 343.954C206.559 341.989 204.66 340.605 202.688 340.934Z" fill="#BDD7EE"/>
<path id="Vector_54" fill-rule="evenodd" clip-rule="evenodd" d="M216.983 338.269C215.021 338.742 213.823 340.709 214.295 342.675C214.73 344.313 216.221 345.443 217.856 345.443C218.147 345.443 218.437 345.406 218.728 345.333C220.654 344.86 221.852 342.857 221.38 340.926C220.872 338.96 218.909 337.758 216.983 338.269Z" fill="#BDD7EE"/>

<g id="Satellite">
<g id="Group">
<g id="Group_2">
<path id="Vector_55" d="M286.015 79.3326L294.136 75.4361L299.979 87.6159L291.86 91.5115L286.015 79.3326Z" fill="#E6E6F9"/>
<path id="Vector_56" d="M271.797 49.6929L279.917 45.7973L285.76 57.9762L277.641 61.8727L271.797 49.6929Z" fill="#E6E6F9"/>
<path id="Vector_57" d="M272.817 67.4344L290.071 59.1557L295.915 71.3345L278.661 79.6142L272.817 67.4344Z" fill="white"/>
<path id="Vector_58" d="M272.817 67.4335L276.876 65.4857L282.721 77.6655L278.66 79.6133L272.817 67.4335Z" fill="#CECDF3"/>
<path id="Vector_59" d="M288.145 69.4479C287.708 70.692 286.344 71.3464 285.099 70.9089C283.855 70.4714 283.201 69.1079 283.638 67.8637C284.076 66.6196 285.439 65.9652 286.683 66.4027C287.929 66.8402 288.582 68.2037 288.145 69.4479Z" fill="#E6E6F9"/>
<path id="Vector_60" d="M299.632 67.3606C297.254 68.5027 294.401 67.4992 293.26 65.1212C292.118 62.7423 293.121 59.8894 295.5 58.7473L299.632 67.3606Z" fill="white"/>
<path id="Vector_61" d="M303.636 61.3906C303.345 62.22 302.436 62.6566 301.606 62.3649C300.776 62.0733 300.34 61.1645 300.632 60.3342C300.924 59.5047 301.832 59.0691 302.662 59.3607C303.491 59.6524 303.928 60.5611 303.636 61.3906Z" fill="#FFBDBC"/>
<path id="Vector_62" d="M300.702 87.2741L294.857 75.0925C294.667 74.696 294.192 74.5292 293.795 74.7197L290.453 76.323L289.875 75.1198L296.263 72.0546C296.659 71.8641 296.827 71.3883 296.636 70.9918L295.261 68.1253C295.41 68.1927 295.562 68.2547 295.716 68.3094C297.063 68.7824 298.589 68.7433 299.975 68.0788C300.165 67.9877 300.311 67.8245 300.381 67.6249C300.451 67.4262 300.44 67.2065 300.348 67.017L298.626 63.4276L300.446 62.5545C300.691 62.7987 300.992 62.9938 301.34 63.1159C302.582 63.5525 303.949 62.8972 304.385 61.6549C304.822 60.4116 304.166 59.0463 302.924 58.6097C301.682 58.1722 300.316 58.8285 299.879 60.0708C299.757 60.418 299.719 60.7753 299.758 61.1189C299.758 61.1189 299.758 61.1189 299.757 61.1189L297.938 61.9921L296.215 58.4028C296.124 58.2132 295.961 58.0665 295.761 57.9963C295.562 57.9261 295.344 57.9389 295.153 58.03C293.609 58.771 292.562 60.1355 292.167 61.6777L290.792 58.8111C290.601 58.4146 290.126 58.2478 289.729 58.4374L283.342 61.5027L282.764 60.2995L286.106 58.6954C286.502 58.5049 286.67 58.03 286.48 57.6335L280.634 45.4519C280.445 45.0554 279.969 44.8886 279.573 45.0782L271.452 48.9756C271.055 49.1652 270.888 49.6409 271.079 50.0374L276.923 62.2182C277.019 62.4168 277.185 62.5572 277.377 62.6256C277.569 62.693 277.787 62.6866 277.986 62.5919L281.328 60.9877L281.906 62.1917L272.472 66.718C272.076 66.9085 271.909 67.3843 272.099 67.7808L277.944 79.9615C278.039 80.1593 278.205 80.3005 278.398 80.368C278.59 80.4354 278.808 80.43 279.006 80.3352L288.439 75.8089L289.017 77.012L285.674 78.6162C285.277 78.8058 285.111 79.2815 285.301 79.678L291.145 91.8596C291.241 92.0574 291.407 92.1987 291.599 92.2662C291.792 92.3336 292.009 92.3281 292.208 92.2324L300.328 88.3359C300.725 88.1464 300.893 87.6706 300.702 87.2741ZM302.396 60.1118C302.81 60.2567 303.028 60.7124 302.883 61.1262C302.737 61.5409 302.282 61.7588 301.868 61.6139C301.454 61.468 301.235 61.0123 301.381 60.5985C301.526 60.1847 301.982 59.9659 302.396 60.1118ZM295.159 59.8821L296.846 63.3985C296.847 63.3994 296.847 63.3994 296.847 63.3994L298.534 66.9158C296.737 67.367 294.807 66.5093 293.975 64.7766C293.143 63.043 293.683 61.0005 295.159 59.8821ZM282.075 58.864L280.815 56.239L283.44 54.9793L284.7 57.6043L282.075 58.864ZM274.807 54.1271L277.432 52.8675L278.691 55.4925L276.066 56.7512L274.807 54.1271ZM278.867 52.1784L281.492 50.9188L282.751 53.5438L280.127 54.8034L278.867 52.1784ZM279.544 46.8583L280.803 49.4833L278.178 50.7429L276.919 48.1179L279.544 46.8583ZM275.483 48.807L276.743 51.432L274.118 52.6916L272.858 50.0666L275.483 48.807ZM278.014 60.8118L276.755 58.1868L279.379 56.928L280.639 59.5521L278.014 60.8118ZM289.7 60.2175L294.856 70.9636L288.468 74.0279C288.468 74.0288 288.468 74.0288 288.468 74.0288L283.095 76.6064L277.939 65.8613L283.312 63.2827L289.7 60.2175ZM279.035 78.5551L273.879 67.809L276.504 66.5494L281.66 77.2955L279.035 78.5551ZM289.029 83.7677L291.654 82.5081L292.914 85.1331L290.289 86.3927L289.029 83.7677ZM293.09 81.819L295.715 80.5594L296.974 83.1844L294.349 84.444L293.09 81.819ZM293.766 76.4998L295.025 79.1239L292.4 80.3835L291.142 77.7585L293.766 76.4998ZM289.706 78.4476L290.965 81.0726L288.341 82.3322L287.081 79.7072L289.706 78.4476ZM292.237 90.4523L290.978 87.8283L293.603 86.5686L294.861 89.1936L292.237 90.4523ZM296.297 88.5046L295.038 85.8796L297.662 84.6199L298.922 87.2449L296.297 88.5046Z" fill="#C193DC"/>
<path id="Vector_63" d="M289.506 63.1752C289.36 63.5899 288.905 63.8078 288.49 63.6619C288.076 63.5161 287.858 63.0622 288.004 62.6475C288.149 62.2319 288.603 62.014 289.018 62.1599C289.433 62.3057 289.651 62.7605 289.506 63.1752Z" fill="#E6E6F9"/>
<path id="Vector_64" d="M290.481 65.205C290.335 65.6197 289.88 65.8384 289.465 65.6926C289.05 65.5468 288.832 65.0919 288.978 64.6772C289.123 64.2625 289.578 64.0447 289.993 64.1905C290.408 64.3363 290.625 64.7902 290.481 65.205Z" fill="#E6E6F9"/>
</g>
</g>
</g>
</g>
</svg>
