<svg width="375" height="352" viewBox="0 0 375 352" fill="none" xmlns="http://www.w3.org/2000/svg">
<g id="Satellite_Orbit2">
<g id="Group">
<path id="Vector" fill-rule="evenodd" clip-rule="evenodd" d="M86.6494 32.9065C84.989 33.952 82.7328 33.4153 81.7024 31.7001C80.6365 29.9924 81.1602 27.7726 82.856 26.7199C83.2149 26.4978 83.589 26.3469 83.9781 26.2669C85.4286 25.9687 86.9975 26.5726 87.8384 27.9189C88.8688 29.6341 88.3451 31.854 86.6494 32.9065Z" fill="#B4C7E7" fill-opacity="0.07"/>
<path id="Vector_2" fill-rule="evenodd" clip-rule="evenodd" d="M75.034 40.7784C73.4393 41.9586 71.1501 41.6139 69.958 40.0062C68.7658 38.3985 69.0899 36.1085 70.6847 34.9284C71.1345 34.6136 71.6071 34.4052 72.1024 34.3034C73.4467 34.0271 74.8792 34.5108 75.7607 35.7006C76.9529 37.3084 76.6287 39.5983 75.034 40.7784Z" fill="#B4C7E7" fill-opacity="0.05"/>
<path id="Vector_3" fill-rule="evenodd" clip-rule="evenodd" d="M98.9238 26.0475C97.1624 26.9655 94.9745 26.2294 94.078 24.4498C93.1386 22.6419 93.8619 20.4922 95.6233 19.5742C95.9266 19.4378 96.2374 19.3368 96.5204 19.2787C98.077 18.9587 99.7469 19.69 100.512 21.2002C101.409 22.9799 100.693 25.1651 98.9238 26.0475Z" fill="#B4C7E7" fill-opacity="0.1"/>
<path id="Vector_4" fill-rule="evenodd" clip-rule="evenodd" d="M124.985 15.6137C123.077 16.1912 121.041 15.1276 120.448 13.2114C119.854 11.2953 120.899 9.26494 122.806 8.68747C122.913 8.66565 123.019 8.64383 123.16 8.61474C124.964 8.24386 126.781 9.31564 127.344 11.0898C127.937 13.0059 126.893 15.0363 124.985 15.6137Z" fill="#B4C7E7" fill-opacity="0.18"/>
<path id="Vector_5" fill-rule="evenodd" clip-rule="evenodd" d="M111.731 20.302C109.889 21.0142 107.777 20.1144 107.014 18.2701C106.251 16.4258 107.124 14.2825 109.001 13.5631C109.206 13.4839 109.411 13.4048 109.588 13.3684C111.286 13.0194 113.029 13.9209 113.711 15.5595C114.481 17.4392 113.566 19.5543 111.731 20.302Z" fill="#B4C7E7" fill-opacity="0.14"/>
<g id="Make it gone 2">
<!--
<path id="Vector_6" fill-rule="evenodd" clip-rule="evenodd" d="M6.10393 199.132C8.07236 198.839 9.94933 200.195 10.2949 202.162C10.6051 204.136 9.30327 205.997 7.29947 206.298C5.33859 206.627 3.46162 205.271 3.15144 203.297C2.81343 201.365 4.05208 199.554 5.96243 199.161C5.9978 199.154 6.06855 199.14 6.10393 199.132Z" fill="#B4C7E7" fill-opacity="0.54902"/>
<path id="Vector_7" fill-rule="evenodd" clip-rule="evenodd" d="M24.123 94.5251C22.3647 93.5525 21.7387 91.3096 22.7019 89.5923C23.2354 88.6304 24.1073 88.0435 25.0978 87.8399C25.9468 87.6654 26.8211 87.7821 27.6143 88.2119C29.3802 89.22 29.9986 91.4274 29.0354 93.1447C28.0444 94.9047 25.846 95.5049 24.123 94.5251Z" fill="#B4C7E7" fill-opacity="0.54902"/>
<path id="Vector_8" fill-rule="evenodd" clip-rule="evenodd" d="M12.8416 120.931C10.9594 120.243 9.95935 118.151 10.6295 116.272C11.0747 115.068 12.078 114.232 13.2809 113.985C13.9176 113.854 14.5921 113.901 15.234 114.139C17.1086 114.792 18.1085 116.883 17.4384 118.763C16.7682 120.642 14.7238 121.618 12.8416 120.931Z" fill="#B4C7E7" fill-opacity="0.54902"/>
<path id="Vector_9" fill-rule="evenodd" clip-rule="evenodd" d="M13.3256 132.207C12.8196 134.164 10.8409 135.275 8.89033 134.786C6.96763 134.255 5.80593 132.271 6.31187 130.314C6.68372 128.941 7.77051 127.976 9.04407 127.714C9.6101 127.598 10.171 127.631 10.7193 127.778C12.6774 128.301 13.8037 130.293 13.3256 132.207Z" fill="#B4C7E7" fill-opacity="0.54902"/>
<path id="Vector_10" fill-rule="evenodd" clip-rule="evenodd" d="M10.3528 145.973C9.99589 147.936 8.1333 149.246 6.17012 148.871C4.17916 148.539 2.85569 146.662 3.205 144.663C3.47581 143.163 4.61062 142.077 6.02569 141.786C6.45021 141.699 6.92524 141.675 7.38761 141.765C9.34321 142.105 10.6743 144.017 10.3528 145.973Z" fill="#B4C7E7" fill-opacity="0.54902"/>
<path id="Vector_11" fill-rule="evenodd" clip-rule="evenodd" d="M7.91863 174.043C7.93825 176.04 6.32064 177.632 4.32702 177.635C2.32584 177.601 0.686458 175.974 0.70222 173.97C0.700215 172.229 1.90844 170.795 3.57115 170.453C3.78341 170.409 4.03862 170.394 4.29382 170.378C6.33038 170.404 7.93438 172.039 7.91863 174.043Z" fill="#B4C7E7" fill-opacity="0.54902"/>
<path id="Vector_12" fill-rule="evenodd" clip-rule="evenodd" d="M8.53134 159.947C8.3665 161.945 6.61248 163.417 4.61639 163.235C2.61273 163.017 1.1629 161.24 1.33531 159.277C1.46971 157.656 2.67285 156.371 4.19405 156.059C4.51244 155.993 4.87377 155.956 5.25026 155.99C7.24634 156.172 8.69618 157.95 8.53134 159.947Z" fill="#B4C7E7" fill-opacity="0.54902"/>
<path id="Vector_13" fill-rule="evenodd" clip-rule="evenodd" d="M4.60014 184.804C6.59886 184.653 8.35704 186.144 8.52573 188.147C8.6944 190.151 7.21322 191.863 5.21451 192.015C3.21579 192.166 1.45761 190.675 1.28892 188.672C1.15808 186.846 2.39919 185.22 4.13265 184.863C4.30953 184.827 4.45105 184.798 4.60014 184.804Z" fill="#B4C7E7" fill-opacity="0.54902"/>
<path id="Vector_14" fill-rule="evenodd" clip-rule="evenodd" d="M58.5705 299.885C59.1088 299.293 59.8063 298.927 60.5139 298.782C61.6106 298.556 62.8132 298.828 63.6898 299.648C65.1978 301.006 65.3134 303.28 63.9712 304.778C62.6569 306.234 60.36 306.373 58.8873 305.008C57.3868 303.686 57.2637 301.377 58.5705 299.885Z" fill="#B4C7E7" fill-opacity="0.4"/>
<path id="Vector_15" fill-rule="evenodd" clip-rule="evenodd" d="M48.4642 289.549C48.9899 289.071 49.5888 288.762 50.1902 288.639C51.393 288.391 52.6891 288.755 53.596 289.717C54.9852 291.21 54.8809 293.492 53.4377 294.863C51.987 296.199 49.7155 296.11 48.3338 294.653C46.9522 293.195 47.021 290.921 48.4642 289.549Z" fill="#B4C7E7" fill-opacity="0.4"/>
<path id="Vector_16" fill-rule="evenodd" clip-rule="evenodd" d="M39.2469 278.362C39.7245 278.005 40.2325 277.789 40.7631 277.68C42.0721 277.411 43.4617 277.867 44.328 278.985C45.5909 280.579 45.3376 282.854 43.7504 284.07C42.2062 285.314 39.9322 285.04 38.6692 283.447C37.4493 281.882 37.7026 279.606 39.2469 278.362Z" fill="#B4C7E7" fill-opacity="0.4"/>
<path id="Vector_17" fill-rule="evenodd" clip-rule="evenodd" d="M31.0207 266.455C31.415 266.225 31.8168 266.032 32.2413 265.944C33.6564 265.653 35.1824 266.229 36.0512 267.533L36.0158 267.54C37.1448 269.198 36.6994 271.439 35.0112 272.527C33.3659 273.643 31.1248 273.177 30.0237 271.477C29.9883 271.484 29.9883 271.484 29.9883 271.484C28.8947 269.819 29.3401 267.578 31.0207 266.455Z" fill="#B4C7E7" fill-opacity="0.4"/>
<path id="Vector_18" fill-rule="evenodd" clip-rule="evenodd" d="M23.8088 253.93C24.1044 253.758 24.4431 253.614 24.7614 253.549C26.2827 253.236 27.9097 253.939 28.7026 255.407C29.6698 257.172 29.0249 259.343 27.271 260.296C25.5172 261.249 23.3444 260.584 22.3772 258.819C21.4099 257.054 22.0549 254.883 23.8088 253.93Z" fill="#B4C7E7" fill-opacity="0.4"/>
<path id="Vector_19" fill-rule="evenodd" clip-rule="evenodd" d="M8.79866 213.326C8.83404 213.319 8.9048 213.305 8.94017 213.297C10.8151 212.912 12.725 214.076 13.2045 215.978C13.6916 217.916 12.5262 219.897 10.5956 220.368C8.66503 220.839 6.67683 219.654 6.18973 217.716C5.70264 215.779 6.87564 213.833 8.79866 213.326Z" fill="#B4C7E7" fill-opacity="0.4"/>
<path id="Vector_20" fill-rule="evenodd" clip-rule="evenodd" d="M17.6513 240.817C17.8914 240.731 18.1314 240.645 18.3791 240.594C20.0064 240.259 21.7345 241.09 22.444 242.686C23.2419 244.523 22.4403 246.651 20.5854 247.477C18.7937 248.253 16.626 247.439 15.8281 245.602C15.0302 243.765 15.8318 241.636 17.6513 240.817Z" fill="#B4C7E7" fill-opacity="0.4"/>
<path id="Vector_21" fill-rule="evenodd" clip-rule="evenodd" d="M12.6526 227.246C12.7941 227.217 12.9356 227.188 13.0772 227.158C14.846 226.795 16.6473 227.796 17.2734 229.52C17.902 231.429 16.9008 233.487 15.0434 234.128C13.1507 234.777 11.0866 233.756 10.4226 231.854C9.75866 229.953 10.7599 227.894 12.6526 227.246Z" fill="#B4C7E7" fill-opacity="0.4"/>
<path id="Vector_22" fill-rule="evenodd" clip-rule="evenodd" d="M83.5222 316.285C84.4067 316.104 85.3668 316.277 86.2181 316.806C87.8855 317.871 88.4053 320.136 87.3208 321.804C86.2793 323.5 84.0581 323.994 82.3478 322.9C80.6805 321.835 80.1607 319.57 81.2098 317.909C81.7659 317.054 82.6024 316.474 83.5222 316.285Z" fill="#B4C7E7" fill-opacity="0.25098"/>
<path id="Vector_23" fill-rule="evenodd" clip-rule="evenodd" d="M71.6769 308.012C72.6321 307.815 73.7134 308.038 74.5951 308.709C76.179 309.902 76.5144 312.168 75.3086 313.787C74.0953 315.37 71.8363 315.686 70.2448 314.457C68.6533 313.228 68.318 310.962 69.5313 309.379C70.0747 308.637 70.8278 308.186 71.6769 308.012Z" fill="#B4C7E7" fill-opacity="0.25098"/>
<path id="Vector_24" fill-rule="evenodd" clip-rule="evenodd" d="M96.007 323.575C96.8206 323.408 97.6519 323.497 98.4452 323.926C100.188 324.828 100.92 327.049 100 328.795C99.0875 330.576 96.9042 331.247 95.118 330.317C93.3319 329.387 92.6428 327.194 93.5555 325.413C94.0813 324.416 95.0164 323.779 96.007 323.575Z" fill="#B4C7E7" fill-opacity="0.25098"/>
<path id="Vector_25" fill-rule="evenodd" clip-rule="evenodd" d="M136.466 338.752C136.961 338.65 137.479 338.655 138.02 338.766C139.97 339.254 141.195 341.189 140.76 343.131C140.289 345.08 138.369 346.29 136.426 345.838C134.475 345.349 133.25 343.415 133.685 341.473C134.007 340.035 135.121 339.028 136.466 338.752Z" fill="#B4C7E7" fill-opacity="0.25098"/>
<path id="Vector_26" fill-rule="evenodd" clip-rule="evenodd" d="M150.6 341.479C151.025 341.392 151.429 341.383 151.884 341.437C153.832 341.741 155.226 343.604 154.94 345.552C154.662 347.536 152.85 348.91 150.866 348.613C148.883 348.317 147.496 346.49 147.774 344.506C147.995 342.941 149.185 341.77 150.6 341.479Z" fill="#B4C7E7" fill-opacity="0.25098"/>
<path id="Vector_27" fill-rule="evenodd" clip-rule="evenodd" d="M109.066 329.748C109.774 329.602 110.491 329.677 111.219 329.972C113.045 330.745 113.947 332.895 113.155 334.725C112.407 336.583 110.297 337.425 108.435 336.659C106.601 335.85 105.707 333.736 106.491 331.871C106.951 330.738 107.934 329.98 109.066 329.748Z" fill="#B4C7E7" fill-opacity="0.25098"/>
<path id="Vector_28" fill-rule="evenodd" clip-rule="evenodd" d="M122.593 334.822C123.194 334.699 123.826 334.717 124.425 334.928C126.335 335.573 127.398 337.614 126.806 339.515C126.179 341.422 124.142 342.434 122.24 341.825C120.337 341.215 119.266 339.138 119.901 337.266C120.288 335.963 121.355 335.077 122.593 334.822Z" fill="#B4C7E7" fill-opacity="0.25098"/>
<path id="Vector_29" fill-rule="evenodd" clip-rule="evenodd" d="M164.924 343.019C165.243 342.953 165.569 342.923 165.867 342.936C167.891 343.076 169.404 344.803 169.31 346.786C169.18 348.777 167.477 350.313 165.488 350.166C163.507 350.054 161.959 348.334 162.081 346.308C162.172 344.659 163.368 343.339 164.924 343.019Z" fill="#B4C7E7" fill-opacity="0.25098"/>
<path id="Vector_30" fill-rule="evenodd" clip-rule="evenodd" d="M193.671 342.407C193.778 342.386 193.919 342.357 194.025 342.335C196.009 342.112 197.795 343.561 198.034 345.55C198.274 347.539 196.851 349.35 194.859 349.537C192.876 349.76 191.09 348.311 190.85 346.322C190.634 344.44 191.867 342.778 193.671 342.407Z" fill="#B4C7E7" fill-opacity="0.25098"/>
<path id="Vector_31" fill-rule="evenodd" clip-rule="evenodd" d="M179.316 343.32C179.529 343.277 179.741 343.233 179.961 343.225C181.982 343.18 183.614 344.771 183.712 346.789C183.767 348.779 182.2 350.435 180.178 350.48C178.192 350.518 176.525 348.934 176.47 346.944C176.425 345.174 177.654 343.662 179.316 343.32Z" fill="#B4C7E7" fill-opacity="0.25098"/>
<path id="Vector_32" fill-rule="evenodd" clip-rule="evenodd" d="M207.874 340.266C207.91 340.259 207.91 340.259 207.945 340.252C209.898 339.887 211.795 341.165 212.184 343.16C212.6 345.112 211.306 347.009 209.353 347.373C207.407 347.773 205.502 346.46 205.086 344.508C204.705 342.548 205.964 340.659 207.874 340.266Z" fill="#B4C7E7" fill-opacity="0.101961"/>
<path id="Vector_33" fill-rule="evenodd" clip-rule="evenodd" d="M221.624 337.032C221.695 337.018 221.801 336.996 221.871 336.981C223.711 336.603 225.57 337.703 226.113 339.556C226.671 341.479 225.549 343.488 223.633 344.03C221.718 344.572 219.702 343.43 219.144 341.507C218.586 339.584 219.708 337.574 221.624 337.032Z" fill="#B4C7E7" fill-opacity="0.101961"/>
-->
</g>

<g id="Make it gone">
<!--
<path id="Vector_34" fill-rule="evenodd" clip-rule="evenodd" d="M338.662 220.556C339.228 220.439 339.817 220.43 340.408 220.605C342.338 221.171 343.437 223.206 342.88 225.099C342.367 227.02 340.352 228.138 338.422 227.572C336.527 226.998 335.393 224.97 335.942 223.042C336.329 221.739 337.424 220.81 338.662 220.556Z" fill="#B4C7E7" fill-opacity="0.0509804"/>
<path id="Vector_35" fill-rule="evenodd" clip-rule="evenodd" d="M342.274 181.386C342.315 179.673 343.531 178.275 345.159 177.94C345.406 177.889 345.697 177.867 345.995 177.879C348.004 177.948 349.58 179.625 349.521 181.601C349.47 183.613 347.809 185.177 345.836 185.101C343.835 185.068 342.259 183.391 342.274 181.386Z" fill="#B4C7E7" fill-opacity="0.0509804"/>
<path id="Vector_36" fill-rule="evenodd" clip-rule="evenodd" d="M345.863 170.68C343.857 170.796 342.127 169.262 342.036 167.28C341.905 165.454 343.162 163.899 344.895 163.542C345.072 163.506 345.249 163.469 345.433 163.469C347.404 163.36 349.135 164.894 349.268 166.905C349.358 168.887 347.842 170.607 345.863 170.68Z" fill="#B4C7E7" fill-opacity="0.0509804"/>
<path id="Vector_37" fill-rule="evenodd" clip-rule="evenodd" d="M341.356 195.434C341.533 193.841 342.716 192.634 344.202 192.329C344.556 192.256 344.952 192.212 345.336 192.281C347.34 192.499 348.762 194.319 348.554 196.289C348.319 198.301 346.55 199.702 344.581 199.477C342.57 199.223 341.156 197.439 341.356 195.434Z" fill="#B4C7E7" fill-opacity="0.0509804"/>
<path id="Vector_38" fill-rule="evenodd" clip-rule="evenodd" d="M339.229 209.359C339.515 207.929 340.65 206.843 342.03 206.56C342.49 206.465 343 206.434 343.47 206.56C345.441 206.97 346.729 208.855 346.337 210.825C345.944 212.796 344.031 214.041 342.103 213.659C340.133 213.249 338.837 211.329 339.229 209.359Z" fill="#B4C7E7" fill-opacity="0.0509804"/>
<path id="Vector_39" fill-rule="evenodd" clip-rule="evenodd" d="M328.464 247.368C329.207 247.216 330.039 247.304 330.781 247.67C332.595 248.557 333.355 250.736 332.478 252.509C331.608 254.319 329.475 255.053 327.669 254.202C325.855 253.315 325.095 251.137 325.965 249.327C326.483 248.294 327.403 247.587 328.464 247.368Z" fill="#B4C7E7" fill-opacity="0.0509804"/>
<path id="Vector_40" fill-rule="evenodd" clip-rule="evenodd" d="M313.91 272.112C314.865 271.916 315.903 272.11 316.77 272.71C318.389 273.896 318.76 276.155 317.625 277.759C316.462 279.406 314.21 279.758 312.599 278.607C310.944 277.428 310.573 275.169 311.701 273.53C312.28 272.781 313.061 272.287 313.91 272.112Z" fill="#B4C7E7" fill-opacity="0.0509804"/>
<path id="Vector_41" fill-rule="evenodd" clip-rule="evenodd" d="M321.716 260.057C322.565 259.883 323.475 259.992 324.283 260.493C326.014 261.508 326.604 263.758 325.598 265.447C324.564 267.179 322.358 267.744 320.628 266.729C318.925 265.671 318.342 263.456 319.341 261.731C319.889 260.84 320.761 260.254 321.716 260.057Z" fill="#B4C7E7" fill-opacity="0.0509804"/>
<path id="Vector_42" fill-rule="evenodd" clip-rule="evenodd" d="M334.14 234.158C334.777 234.027 335.495 234.102 336.172 234.333C338.026 235.064 338.991 237.163 338.285 239.05C337.572 240.901 335.477 241.813 333.623 241.083C331.741 240.395 330.812 238.289 331.517 236.402C331.97 235.234 332.973 234.398 334.14 234.158Z" fill="#B4C7E7" fill-opacity="0.0509804"/>
<path id="Vector_43" fill-rule="evenodd" clip-rule="evenodd" d="M293.605 294.999C294.123 294.485 294.75 294.134 295.422 293.996C296.554 293.763 297.807 294.098 298.742 295.018C300.151 296.433 300.161 298.728 298.725 300.135C297.325 301.535 295.033 301.524 293.624 300.109C292.214 298.694 292.205 296.399 293.605 294.999Z" fill="#B4C7E7" fill-opacity="0.101961"/>
<path id="Vector_44" fill-rule="evenodd" clip-rule="evenodd" d="M303.109 284.671L303.101 284.635C303.668 284 304.358 283.599 305.136 283.439C306.162 283.228 307.329 283.507 308.226 284.249C309.754 285.528 309.948 287.823 308.649 289.35C307.385 290.869 305.096 291.043 303.567 289.764C302.031 288.449 301.838 286.155 303.109 284.671Z" fill="#B4C7E7" fill-opacity="0.101961"/>
<path id="Vector_45" fill-rule="evenodd" clip-rule="evenodd" d="M283.253 304.464C283.723 304.071 284.302 303.841 284.832 303.731C286.106 303.47 287.488 303.89 288.375 304.93C289.665 306.481 289.49 308.777 287.954 310.056C286.417 311.336 284.15 311.098 282.832 309.59C281.541 308.039 281.759 305.771 283.253 304.464Z" fill="#B4C7E7" fill-opacity="0.101961"/>
<path id="Vector_46" fill-rule="evenodd" clip-rule="evenodd" d="M272.158 313.045C272.58 312.773 273.017 312.572 273.477 312.477C274.856 312.193 276.34 312.741 277.186 313.938C278.35 315.588 277.983 317.85 276.345 319.002C274.708 320.154 272.474 319.724 271.317 318.109C270.153 316.458 270.52 314.197 272.158 313.045Z" fill="#B4C7E7" fill-opacity="0.101961"/>
<path id="Vector_47" fill-rule="evenodd" clip-rule="evenodd" d="M260.341 320.661C260.7 320.439 261.046 320.331 261.435 320.251C262.921 319.946 264.462 320.592 265.31 321.974C266.305 323.697 265.746 325.924 264.035 326.905C262.297 327.93 260.104 327.343 259.066 325.592C258.035 323.877 258.63 321.643 260.341 320.661Z" fill="#B4C7E7" fill-opacity="0.101961"/>
-->
</g>

<g id="Make it gone3">
<!--
<path id="Vector_48" fill-rule="evenodd" clip-rule="evenodd" d="M17.9119 107.475C16.0777 106.666 15.2824 104.495 16.1092 102.657C16.5846 101.596 17.5753 100.874 18.6366 100.656C19.3795 100.503 20.1679 100.563 20.9031 100.894C22.7095 101.745 23.5047 103.916 22.7057 105.711C21.8789 107.549 19.7183 108.326 17.9119 107.475Z" fill="#B4C7E7" fill-opacity="0.54902"/>
<path id="Vector_49" fill-rule="evenodd" clip-rule="evenodd" d="M31.3793 82.1392C29.6968 81.0028 29.2553 78.7591 30.3751 77.0837C30.9464 76.2993 31.7552 75.7624 32.6396 75.5806C33.5594 75.3916 34.5624 75.593 35.386 76.1648C37.0609 77.2657 37.51 79.5449 36.3826 81.1848C35.2627 82.8602 33.0264 83.2828 31.3793 82.1392Z" fill="#C1C9D7" fill-opacity="0.701961"/>
<path id="Vector_50" fill-rule="evenodd" clip-rule="evenodd" d="M44.7239 69.9101C43.4954 71.4226 41.1858 71.675 39.6575 70.3958C38.1014 69.1593 37.8292 66.8437 39.0931 65.324C39.6087 64.6251 40.3694 64.2093 41.1477 64.0493C42.1736 63.8384 43.298 64.089 44.1518 64.8029C45.7155 66.0748 45.9801 68.3549 44.7239 69.9101Z" fill="#B4C7E7" fill-opacity="0.701961"/>
<path id="Vector_51" fill-rule="evenodd" clip-rule="evenodd" d="M53.9908 59.3333C52.5981 60.7683 50.3215 60.8287 48.8766 59.4211C47.4317 58.0136 47.3515 55.7326 48.7442 54.2976C49.2548 53.7479 49.9169 53.3895 50.6244 53.2441C51.7211 53.0186 52.9743 53.3539 53.8584 54.2097C55.3033 55.6173 55.3835 57.8982 53.9908 59.3333Z" fill="#B4C7E7" fill-opacity="0.701961"/>
<path id="Vector_52" fill-rule="evenodd" clip-rule="evenodd" d="M234.988 332.691C235.158 332.619 235.37 332.576 235.547 332.539C237.245 332.19 239.031 333.12 239.65 334.809C240.384 336.696 239.426 338.783 237.576 339.459C235.699 340.179 233.614 339.236 232.915 337.342C232.18 335.455 233.139 333.368 234.988 332.691Z" fill="#B4C7E7" fill-opacity="0.101961"/>
<path id="Vector_53" fill-rule="evenodd" clip-rule="evenodd" d="M247.928 327.215C248.196 327.086 248.471 326.992 248.754 326.934C250.346 326.607 252.031 327.409 252.761 328.926C253.63 330.749 252.871 332.906 251.059 333.76C249.282 334.607 247.087 333.835 246.226 332.049C245.357 330.226 246.116 328.069 247.928 327.215Z" fill="#B4C7E7" fill-opacity="0.101961"/>
-->
</g>
<path id="Vector_54" fill-rule="evenodd" clip-rule="evenodd" d="M222.198 15.5289C220.26 14.9267 219.169 12.9277 219.753 10.9918C220.14 9.68942 221.199 8.76766 222.473 8.50586C223.039 8.3895 223.635 8.41514 224.226 8.59005C226.156 9.1567 227.255 11.1913 226.699 13.0844C226.114 15.0202 224.128 16.0955 222.198 15.5289Z" fill="#B4C7E7" fill-opacity="0.5"/>
<path id="Vector_55" fill-rule="evenodd" clip-rule="evenodd" d="M260.811 32.7898C259.116 31.7672 258.561 29.5097 259.567 27.8207C260.115 26.9297 260.987 26.3429 261.942 26.1465C262.791 25.972 263.709 26.117 264.552 26.6105C266.247 27.6331 266.795 29.8551 265.796 31.5796C264.755 33.276 262.549 33.8406 260.811 32.7898Z" fill="#B4C7E7" fill-opacity="0.65"/>
<path id="Vector_56" fill-rule="evenodd" clip-rule="evenodd" d="M248.425 25.961C246.646 25.0667 245.886 22.8884 246.799 21.1074C247.274 20.0462 248.202 19.3738 249.263 19.1557C250.042 18.9957 250.873 19.0842 251.623 19.4858C253.402 20.38 254.162 22.5583 253.284 24.3321C252.407 26.1058 250.239 26.848 248.425 25.961Z" fill="#B4C7E7" fill-opacity="0.6"/>
<path id="Vector_57" fill-rule="evenodd" clip-rule="evenodd" d="M235.519 20.1643L235.527 20.1997C233.665 19.4337 232.736 17.3273 233.484 15.4689C233.937 14.3012 234.948 13.5006 236.08 13.2679C236.752 13.1297 237.462 13.1689 238.147 13.4358C240.009 14.2018 240.938 16.3082 240.225 18.1594C239.476 20.0178 237.382 20.9302 235.519 20.1643Z" fill="#B4C7E7" fill-opacity="0.55"/>
<path id="Vector_58" fill-rule="evenodd" clip-rule="evenodd" d="M138.603 12.1101C136.657 12.5101 134.697 11.2826 134.273 9.2946C133.821 7.34939 135.073 5.42464 137.011 4.98917L137.046 4.98189C138.992 4.58192 140.889 5.85942 141.341 7.80464C141.757 9.75712 140.541 11.6746 138.603 12.1101Z" fill="#B4C7E7" fill-opacity="0.2"/>
<path id="Vector_59" fill-rule="evenodd" clip-rule="evenodd" d="M152.456 9.70773C150.48 9.96571 148.666 8.55989 148.391 6.57831C148.132 4.66773 149.386 2.92776 151.19 2.55687C151.296 2.53506 151.367 2.52051 151.473 2.49869C153.456 2.27621 155.27 3.68204 155.545 5.66361C155.82 7.64519 154.432 9.44975 152.456 9.70773Z" fill="#B4C7E7" fill-opacity="0.25"/>
<path id="Vector_60" fill-rule="evenodd" clip-rule="evenodd" d="M194.612 9.63806C192.636 9.37722 191.214 7.55736 191.457 5.58047C191.635 3.98767 192.817 2.78105 194.303 2.47561C194.657 2.40289 195.061 2.39389 195.473 2.4204C197.449 2.68123 198.871 4.50109 198.628 6.47798C198.392 8.49037 196.623 9.89162 194.612 9.63806Z" fill="#B4C7E7" fill-opacity="0.4"/>
<path id="Vector_61" fill-rule="evenodd" clip-rule="evenodd" d="M208.513 11.9683C206.578 11.5509 205.317 9.62365 205.717 7.68867C205.996 6.22332 207.138 5.17325 208.482 4.8969C208.978 4.79509 209.46 4.80705 209.958 4.89001C211.929 5.30011 213.189 7.22733 212.797 9.19781C212.404 11.1683 210.491 12.4139 208.513 11.9683Z" fill="#B4C7E7" fill-opacity="0.45"/>
<path id="Vector_62" fill-rule="evenodd" clip-rule="evenodd" d="M166.487 8.49039C164.473 8.57087 162.778 7.02946 162.68 5.01152C162.592 3.21385 163.813 1.66592 165.547 1.30957C165.724 1.27321 165.901 1.23685 166.085 1.23599C168.099 1.15551 169.794 2.69692 169.892 4.71486C170.018 6.69002 168.466 8.41718 166.487 8.49039Z" fill="#B4C7E7" fill-opacity="0.3"/>
<path id="Vector_63" fill-rule="evenodd" clip-rule="evenodd" d="M180.584 8.44587C178.575 8.37717 176.999 6.70008 177.05 4.68855C177.134 3.00389 178.35 1.60523 179.942 1.27798C180.225 1.2198 180.515 1.19702 180.813 1.20994C182.787 1.286 184.371 2.9985 184.312 4.97453C184.225 6.99332 182.565 8.55743 180.584 8.44587Z" fill="#B4C7E7" fill-opacity="0.35"/>
<path id="Vector_64" fill-rule="evenodd" clip-rule="evenodd" d="M342.593 133C341.564 134.583 339.229 135.062 337.605 134.025C336.789 133.489 336.238 132.639 336.042 131.716C335.845 130.793 336.002 129.797 336.53 128.984C337.031 128.214 337.867 127.635 338.822 127.439C339.742 127.249 340.745 127.451 341.518 127.959C342.334 128.495 342.913 129.303 343.117 130.261C343.314 131.184 343.121 132.187 342.593 133Z" fill="#DAE3F3"/>
<path id="Vector_65" fill-rule="evenodd" clip-rule="evenodd" d="M272.601 40.6303C270.982 39.444 270.611 37.1856 271.781 35.574C272.317 34.7969 273.106 34.3382 273.955 34.1637C274.945 33.9601 275.984 34.1542 276.822 34.7971C278.469 35.9408 278.848 38.2346 277.677 39.8461C276.507 41.4578 274.22 41.8168 272.601 40.6303Z" fill="#DAE3F3" fill-opacity="0.7"/>
<path id="Vector_66" fill-rule="evenodd" clip-rule="evenodd" d="M317.133 81.8344C315.495 82.9863 313.227 82.5634 312.098 80.9056C310.941 79.2906 311.343 77.0216 312.981 75.8697C313.403 75.5977 313.84 75.3966 314.3 75.3021C315.68 75.0185 317.163 75.5659 318.016 76.7985C319.181 78.449 318.778 80.718 317.133 81.8344Z" fill="#DAE3F3" fill-opacity="0.9"/>
<path id="Vector_67" fill-rule="evenodd" clip-rule="evenodd" d="M324.614 94.2298C322.903 95.2115 320.674 94.632 319.672 92.8741C318.677 91.1518 319.271 88.9174 320.982 87.9357C321.348 87.7492 321.687 87.6055 322.041 87.5328C323.527 87.2274 325.146 87.895 325.924 89.2914C325.959 89.2841 325.959 89.2841 325.959 89.2841C326.919 91.0138 326.36 93.2409 324.614 94.2298Z" fill="#DAE3F3"/>
<path id="Vector_68" fill-rule="evenodd" clip-rule="evenodd" d="M336.376 120.642C334.49 121.326 332.398 120.347 331.699 118.453C331.007 116.594 331.966 114.507 333.851 113.824C334.02 113.752 334.197 113.715 334.339 113.686C336.072 113.33 337.866 114.295 338.484 115.984C339.184 117.878 338.261 119.958 336.376 120.642Z" fill="#DAE3F3"/>
<path id="Vector_69" fill-rule="evenodd" clip-rule="evenodd" d="M331.073 107.206C329.254 108.024 327.093 107.245 326.225 105.423C325.392 103.593 326.15 101.436 327.97 100.618C328.202 100.496 328.478 100.402 328.761 100.344C330.353 100.017 332.038 100.819 332.775 102.372C333.644 104.194 332.85 106.359 331.073 107.206Z" fill="#DAE3F3"/>
<path id="Vector_70" fill-rule="evenodd" clip-rule="evenodd" d="M299.157 59.1831C297.721 60.5899 295.465 60.572 294.048 59.1217C292.631 57.6714 292.664 55.4041 294.064 54.0045C294.583 53.4904 295.182 53.182 295.854 53.0438C297.021 52.8038 298.274 53.1391 299.174 54.0659C300.591 55.5163 300.557 57.7836 299.157 59.1831Z" fill="#DAE3F3" fill-opacity="0.75"/>
<path id="Vector_71" fill-rule="evenodd" clip-rule="evenodd" d="M308.619 70.1336C307.082 71.4129 304.815 71.1747 303.525 69.6243C302.242 68.1094 302.452 65.8058 303.989 64.5264C304.423 64.1406 304.967 63.9177 305.533 63.8014C306.806 63.5396 308.188 63.9596 309.082 65.0356C310.338 66.5933 310.155 68.8542 308.619 70.1336Z" fill="#DAE3F3" fill-opacity="0.8"/>
<path id="Vector_72" fill-rule="evenodd" clip-rule="evenodd" d="M288.805 49.0824C287.498 50.5739 285.244 50.7408 283.709 49.4261C282.173 48.1113 282.022 45.8449 283.321 44.3179C283.852 43.69 284.542 43.2888 285.285 43.1361C286.346 42.9179 287.513 43.1967 288.41 43.9388C289.911 45.2608 290.104 47.5554 288.805 49.0824Z" fill="#DAE3F3" fill-opacity="0.7"/>
<path id="Vector_73" fill-rule="evenodd" clip-rule="evenodd" d="M347.089 154.087C346.095 155.662 343.69 156.157 342.101 155.112C341.292 154.612 340.742 153.761 340.537 152.803C340.34 151.88 340.497 150.884 341.033 150.107C341.526 149.302 342.363 148.722 343.318 148.526C344.238 148.336 345.241 148.538 346.014 149.046C346.83 149.582 347.416 150.425 347.613 151.348C347.817 152.307 347.617 153.274 347.089 154.087Z" fill="#DAE3F3"/>

</g>

<g id="Satellite">
<g id="Group_2">
<g id="Group_3">
<path id="Vector_74" d="M335.507 165.104L342.747 170.461L334.711 181.32L327.472 175.964L335.507 165.104Z" fill="#E6E6F9"/>
<path id="Vector_75" d="M355.062 138.68L362.301 144.037L354.266 154.896L347.026 149.54L355.062 138.68Z" fill="#E6E6F9"/>
<path id="Vector_76" d="M339.855 147.874L355.239 159.258L347.204 170.117L331.82 158.734L339.855 147.874Z" fill="white"/>
<path id="Vector_77" d="M339.856 147.874L343.475 150.552L335.44 161.412L331.82 158.733L339.856 147.874Z" fill="#CECDF3"/>
<path id="Vector_78" d="M345.24 162.367C343.936 162.561 342.72 161.662 342.525 160.357C342.33 159.052 343.229 157.836 344.534 157.642C345.838 157.447 347.054 158.346 347.249 159.651C347.444 160.956 346.544 162.171 345.24 162.367Z" fill="#E6E6F9"/>
<path id="Vector_79" d="M352.455 171.545C350.334 169.977 349.887 166.985 351.456 164.865C353.025 162.744 356.016 162.297 358.138 163.866L352.455 171.545Z" fill="white"/>
<path id="Vector_80" d="M359.604 172.294C358.735 172.424 357.924 171.825 357.794 170.955C357.664 170.085 358.264 169.275 359.134 169.145C360.004 169.015 360.813 169.614 360.943 170.484C361.073 171.354 360.474 172.164 359.604 172.294Z" fill="#FFBDBC"/>
<path id="Vector_81" d="M335.351 181.8L343.388 170.938C343.65 170.585 343.575 170.087 343.221 169.825L340.241 167.62L341.035 166.547L346.731 170.761C347.084 171.022 347.583 170.948 347.844 170.594L349.736 168.038C349.746 168.202 349.762 168.365 349.786 168.527C349.997 169.938 350.745 171.27 351.98 172.184C352.15 172.31 352.362 172.362 352.572 172.331C352.78 172.3 352.969 172.187 353.094 172.018L355.461 168.817L357.084 170.018C356.983 170.349 356.951 170.706 357.006 171.071C357.201 172.373 358.419 173.275 359.721 173.08C361.024 172.885 361.925 171.667 361.73 170.365C361.536 169.062 360.317 168.161 359.015 168.356C358.651 168.41 358.317 168.544 358.031 168.739C358.031 168.739 358.031 168.739 358.031 168.738L356.409 167.538L358.776 164.337C358.901 164.168 358.955 163.955 358.924 163.746C358.893 163.537 358.779 163.35 358.61 163.224C357.233 162.206 355.537 161.918 353.989 162.29L355.88 159.734C356.142 159.38 356.067 158.881 355.714 158.62L350.018 154.406L350.812 153.332L353.792 155.537C354.146 155.799 354.644 155.725 354.906 155.371L362.942 144.51C363.204 144.157 363.129 143.658 362.776 143.396L355.534 138.039C355.182 137.777 354.683 137.852 354.422 138.206L346.386 149.066C346.255 149.244 346.208 149.456 346.238 149.658C346.268 149.859 346.375 150.049 346.552 150.18L349.532 152.385L348.738 153.459L340.327 147.235C339.973 146.974 339.475 147.049 339.213 147.402L331.177 158.263C331.047 158.439 331 158.653 331.03 158.854C331.06 159.056 331.167 159.246 331.343 159.376L339.754 165.6L338.961 166.673L335.98 164.467C335.627 164.206 335.129 164.281 334.867 164.634L326.83 175.495C326.7 175.672 326.653 175.885 326.683 176.086C326.713 176.288 326.82 176.478 326.998 176.609L334.238 181.966C334.591 182.228 335.09 182.153 335.351 181.8ZM360.155 170.6C360.221 171.034 359.92 171.44 359.486 171.505C359.051 171.57 358.646 171.269 358.58 170.835C358.516 170.401 358.816 169.995 359.25 169.93C359.684 169.865 360.09 170.166 360.155 170.6ZM356.975 164.095L354.655 167.23C354.655 167.231 354.655 167.231 354.655 167.231L352.335 170.366C351.096 168.989 350.952 166.882 352.095 165.337C353.239 163.791 355.296 163.313 356.975 164.095ZM351.759 152.052L353.49 149.712L355.831 151.443L354.099 153.784L351.759 152.052ZM352.549 143.413L354.889 145.145L353.158 147.485L350.818 145.753L352.549 143.413ZM356.17 146.092L358.51 147.823L356.778 150.163L354.438 148.432L356.17 146.092ZM361.189 144.203L359.457 146.543L357.117 144.811L358.848 142.471L361.189 144.203ZM357.568 141.524L355.836 143.865L353.496 142.133L355.227 139.792L357.568 141.524ZM348.139 149.373L349.871 147.033L352.21 148.765L350.479 151.105L348.139 149.373ZM354.127 159.426L347.037 169.007L341.343 164.793C341.342 164.793 341.342 164.793 341.342 164.793L336.551 161.249L343.64 151.668L348.431 155.212L354.127 159.426ZM332.931 158.57L340.02 148.988L342.361 150.72L335.271 160.302L332.931 158.57ZM332.994 169.842L335.335 171.573L333.603 173.914L331.263 172.182L332.994 169.842ZM336.615 172.52L338.956 174.252L337.224 176.592L334.883 174.861L336.615 172.52ZM341.634 170.632L339.903 172.972L337.562 171.24L339.294 168.9L341.634 170.632ZM338.014 167.953L336.282 170.293L333.942 168.562L335.673 166.222L338.014 167.953ZM328.585 175.803L330.316 173.462L332.656 175.194L330.924 177.534L328.585 175.803ZM332.204 178.481L333.937 176.141L336.277 177.872L334.545 180.212L332.204 178.481Z" fill="#C193DC"/>
<path id="Vector_82" d="M351.421 160.637C350.987 160.702 350.581 160.401 350.517 159.967C350.452 159.532 350.751 159.127 351.186 159.062C351.621 158.997 352.026 159.296 352.091 159.731C352.156 160.166 351.856 160.572 351.421 160.637Z" fill="#E6E6F9"/>
<path id="Vector_83" d="M350.083 162.447C349.648 162.512 349.242 162.213 349.177 161.778C349.112 161.343 349.412 160.937 349.847 160.872C350.281 160.807 350.687 161.107 350.752 161.542C350.817 161.977 350.517 162.382 350.083 162.447Z" fill="#E6E6F9"/>
</g>
</g>
</g>
</g>
</svg>
