<svg width="81" height="137" viewBox="0 0 81 137" fill="none" xmlns="http://www.w3.org/2000/svg">
<g id="SpaceMan">
<path id="Vector" d="M27.9074 26.2774H51.9255V32.8627C51.9255 33.9973 51.2786 35.0854 50.1272 35.8877C48.9758 36.69 47.4142 37.1407 45.7858 37.1407H34.0471C32.4187 37.1407 30.8571 36.69 29.7057 35.8877C28.5543 35.0854 27.9074 33.9973 27.9074 32.8627V26.2774H27.9074Z" fill="#2F2E41"/>
<path id="Vector_2" d="M59.9315 113.771C54.4621 117.632 48.9843 117.658 43.4982 113.895L39.2844 87.9339L36.3348 113.95C30.8524 117.041 25.7432 117.458 21.1655 114.065C16.7986 91.5868 14.425 70.7047 18.2159 54.7569L10.2098 32.1495L28.3288 26.2774C31.9775 32.5663 26.2228 35.7829 39.2359 35.6753C52.1343 35.5685 51.171 32.1878 50.6614 26.2774L67.3291 30.7443C68.7486 31.1247 69.9064 31.8681 70.5664 32.8228C71.2264 33.7775 71.3389 34.8718 70.8809 35.8823L62.4597 54.4633C65.7016 63.8431 62.373 89.9352 59.9315 113.771Z" fill="#E6E6E6"/>
<path id="Vector_3" d="M34.6493 136.378C34.6493 136.378 21.1979 137.199 19.396 136.682C19.2822 136.65 19.1715 136.614 19.0638 136.576C16.3859 135.623 16.3043 132.955 18.8072 131.794L24.1151 129.332L19.48 112.009L37.3883 112.156L34.6493 136.378Z" fill="#2F2E41"/>
<path id="Vector_4" d="M44.7622 136.525C44.7622 136.525 58.2136 137.346 60.0156 136.829C60.1293 136.796 60.24 136.761 60.3477 136.723C63.0256 135.77 63.1072 133.102 60.6043 131.941L55.2964 129.479L61.8277 112.156H43.0767L44.7622 136.525Z" fill="#2F2E41"/>
<path id="Vector_5" d="M13.1594 74.7218L15.8257 82.1532C16.1534 83.0666 16.0597 84.0287 15.5577 84.9028C15.0557 85.777 14.1711 86.5186 13.0295 87.0224V87.0224C12.1072 87.4294 11.0512 87.666 9.96119 87.7098C8.87121 87.7537 7.78317 87.6033 6.79972 87.2729C5.81627 86.9425 4.96984 86.443 4.34027 85.8215C3.71069 85.1999 3.31874 84.4769 3.20139 83.7206L2.62515 80.0067L0.518311 44.7094C0.51831 41.7736 1.76734 38.9036 4.10755 36.4623C6.44775 34.021 9.77409 32.1178 13.6662 30.9934L17.7945 29.8007L13.1594 74.7218Z" fill="#E6E6E6"/>
<path id="Vector_6" d="M80.1573 44.4161L80.1446 44.6246L78.4423 73.1158L78.1136 78.6208L78.0504 79.713L77.4732 83.4271C77.3785 84.0375 77.1047 84.6279 76.6688 85.1615C76.2328 85.6951 75.6441 86.1605 74.9391 86.5288C74.2341 86.8972 73.4279 87.1606 72.5706 87.3026C71.7134 87.4447 70.8233 87.4624 69.9558 87.3547C69.0883 87.2469 68.2619 87.0161 67.5278 86.6764C66.7938 86.3367 66.1679 85.8954 65.6889 85.38C65.21 84.8647 64.8883 84.2861 64.7438 83.6805C64.5992 83.0748 64.635 82.4549 64.8489 81.8593L67.5162 74.4282L67.4572 73.8762L67.1032 70.4235L62.8811 29.507L67.0105 30.699C70.9002 31.8261 74.2242 33.73 76.5637 36.171C78.9032 38.612 80.1536 41.4809 80.1573 44.4161V44.4161Z" fill="#E6E6E6"/>
<path id="Vector_7" d="M40.9933 76.8387C25.687 76.8387 16.2452 73.14 16.1117 73.0864L16.5329 72.5777C16.7209 72.6534 35.657 80.0546 63.4778 73.6392L63.7428 74.1966C56.4118 75.9211 48.7307 76.8132 40.9933 76.8387V76.8387Z" fill="#2F2E41"/>
<path id="Vector_8" d="M25.8367 103.908C22.4682 98.6266 22.4512 75.6732 22.4522 74.6986L23.2949 74.6992C23.2947 74.9366 23.3105 98.5013 26.607 103.669L25.8367 103.908Z" fill="#2F2E41"/>
<path id="Vector_9" d="M27.5889 104.145C24.5883 104.145 22.5946 103.699 21.2949 103.189C18.9284 102.259 18.4401 100.992 18.4206 100.938L19.237 100.793L18.8288 100.866L19.2364 100.791C19.2535 100.836 19.6796 101.891 21.7461 102.692C24.0214 103.573 28.6016 104.231 37.4956 102.357L37.7392 102.919C33.4827 103.816 30.1648 104.145 27.5889 104.145Z" fill="#2F2E41"/>
<path id="Vector_10" d="M20.0623 29.0785L19.2204 29.1072L22.4527 75.0934L23.2946 75.0647L20.0623 29.0785Z" fill="#2F2E41"/>
<path id="Vector_11" d="M54.4175 103.908L53.6472 103.669C56.9436 98.5013 56.9597 74.9366 56.9593 74.6992L57.802 74.6986C57.8028 75.6732 57.7859 98.6266 54.4175 103.908Z" fill="#2F2E41"/>
<path id="Vector_12" d="M52.6653 104.145C50.0893 104.145 46.7723 103.817 42.515 102.919L42.7586 102.357C51.6526 104.231 56.2317 103.574 58.5081 102.692C60.5746 101.891 61.0005 100.836 61.0174 100.791L61.8334 100.938C61.8136 100.992 61.3256 102.259 58.9591 103.189C57.6596 103.699 55.6651 104.145 52.6653 104.145Z" fill="#2F2E41"/>
<path id="Vector_13" d="M60.1887 29.0784L56.963 75.0648L57.8049 75.0935L61.0306 29.1071L60.1887 29.0784Z" fill="#2F2E41"/>
<path id="Vector_14" d="M51.8748 35.9664L45.6047 42.4254H32.1209L27.6125 35.9664H29.593L32.9639 41.2511H44.3408L49.8187 35.9664H51.8748Z" fill="#6C63FF"/>
<path id="Vector_15" d="M67.0949 39.1959L67.2044 39.3485L67.0949 39.4895V39.1959Z" fill="black"/>
<path id="Vector_16" d="M81 44.4162L80.9874 44.6246L72.994 46.2424L68.0471 39.3486L73.1078 32.8835C75.5737 34.2744 77.5622 36.0318 78.9278 38.0272C80.2933 40.0226 81.0013 42.2055 81 44.4162V44.4162Z" fill="#6C63FF"/>
<path id="Vector_17" d="M1.7642e-06 44.4162L0.012658 44.6246L8.00603 46.2424L12.9529 39.3486L7.89225 32.8835C5.42629 34.2744 3.43779 36.0318 2.07226 38.0272C0.706732 40.0226 -0.00128992 42.2055 1.7642e-06 44.4162V44.4162Z" fill="#6C63FF"/>
<path id="Vector_18" d="M39.9164 31.1218C52.2504 31.1218 62.249 24.155 62.249 15.5609C62.249 6.96686 52.2504 0 39.9164 0C27.5825 0 17.5838 6.96686 17.5838 15.5609C17.5838 24.155 27.5825 31.1218 39.9164 31.1218Z" fill="#E6E6E6"/>
<path id="Vector_19" d="M39.9165 29.0667C48.9925 29.0667 56.35 23.9401 56.35 17.6162C56.35 11.2922 48.9925 6.16568 39.9165 6.16568C30.8406 6.16568 23.4831 11.2922 23.4831 17.6162C23.4831 23.9401 30.8406 29.0667 39.9165 29.0667Z" fill="#2F2E41"/>
<path id="Vector_20" d="M78.6826 73.1159L78.3405 78.621L67.5329 74.5751L67.2525 73.8762L66.884 70.4235L78.6826 73.1159Z" fill="#6C63FF"/>
<path id="Vector_21" d="M1.81177 73.1159L2.17135 78.621L13.5307 74.5751L13.8258 73.8762L14.213 70.4235L1.81177 73.1159Z" fill="#6C63FF"/>
<path id="Vector_22" d="M45.8287 42.7192H31.8571L24.1215 31.6394L23.7239 27.6542L24.5646 27.6136L24.951 31.4849L32.3849 42.1318H45.381L54.9141 32.3128L56.9434 27.9775L57.7453 28.1593L55.6453 32.6078L45.8287 42.7192Z" fill="#2F2E41"/>
</g>
</svg>
