<svg width="918" height="679" viewBox="0 0 918 679" fill="none" xmlns="http://www.w3.org/2000/svg">
<g id="star5">
<path id="Vector" d="M9.5 658C14.7467 658 19 654.194 19 649.5C19 644.806 14.7467 641 9.5 641C4.25329 641 0 644.806 0 649.5C0 654.194 4.25329 658 9.5 658Z" fill="#F2F2F2"/>
<path id="Vector_2" d="M676.5 667C681.747 667 686 663.194 686 658.5C686 653.806 681.747 650 676.5 650C671.253 650 667 653.806 667 658.5C667 663.194 671.253 667 676.5 667Z" fill="#F2F2F2"/>
<path id="Vector_3" d="M909 679C913.971 679 918 674.299 918 668.5C918 662.701 913.971 658 909 658C904.029 658 900 662.701 900 668.5C900 674.299 904.029 679 909 679Z" fill="#F2F2F2"/>
<path id="Vector_4" d="M887.5 17C892.747 17 897 13.1944 897 8.5C897 3.80558 892.747 0 887.5 0C882.253 0 878 3.80558 878 8.5C878 13.1944 882.253 17 887.5 17Z" fill="#F2F2F2"/>
</g>
</svg>
