<svg width="862" height="854" viewBox="0 0 862 854" fill="none" xmlns="http://www.w3.org/2000/svg">
<g id="star2">
<path id="Vector" d="M14 28C21.732 28 28 21.732 28 14C28 6.26801 21.732 0 14 0C6.26801 0 0 6.26801 0 14C0 21.732 6.26801 28 14 28Z" fill="#F2F2F2"/>
<path id="Vector_2" d="M176 642C183.732 642 190 635.732 190 628C190 620.268 183.732 614 176 614C168.268 614 162 620.268 162 628C162 635.732 168.268 642 176 642Z" fill="#F2F2F2"/>
<path id="Vector_3" d="M389 854C392.866 854 396 851.09 396 847.5C396 843.91 392.866 841 389 841C385.134 841 382 843.91 382 847.5C382 851.09 385.134 854 389 854Z" fill="#F2F2F2"/>
<path id="Vector_4" d="M856 242C859.314 242 862 239.314 862 236C862 232.686 859.314 230 856 230C852.686 230 850 232.686 850 236C850 239.314 852.686 242 856 242Z" fill="#F2F2F2"/>
<path id="Vector_5" d="M844 20C847.314 20 850 17.3137 850 14C850 10.6863 847.314 8 844 8C840.686 8 838 10.6863 838 14C838 17.3137 840.686 20 844 20Z" fill="#F2F2F2"/>
</g>
</svg>
