<svg width="1059" height="904" viewBox="0 0 1059 904" fill="none" xmlns="http://www.w3.org/2000/svg">
<g id="star1">
<path id="Vector" d="M308 185C310.761 185 313 182.761 313 180C313 177.239 310.761 175 308 175C305.239 175 303 177.239 303 180C303 182.761 305.239 185 308 185Z" fill="#F2F2F2"/>
<path id="Vector_2" d="M762.5 629C767.747 629 772 625.194 772 620.5C772 615.806 767.747 612 762.5 612C757.253 612 753 615.806 753 620.5C753 625.194 757.253 629 762.5 629Z" fill="#F2F2F2"/>
<path id="Vector_3" d="M5 904C7.76142 904 10 901.761 10 899C10 896.239 7.76142 894 5 894C2.23858 894 0 896.239 0 899C0 901.761 2.23858 904 5 904Z" fill="#F2F2F2"/>
<path id="Vector_4" d="M195 114C197.761 114 200 111.761 200 109C200 106.239 197.761 104 195 104C192.239 104 190 106.239 190 109C190 111.761 192.239 114 195 114Z" fill="#F2F2F2"/>
<path id="Vector_5" d="M690 10C692.761 10 695 7.76142 695 5C695 2.23858 692.761 0 690 0C687.239 0 685 2.23858 685 5C685 7.76142 687.239 10 690 10Z" fill="#F2F2F2"/>
<path id="Vector_6" d="M1053 88C1056.31 88 1059 85.3137 1059 82C1059 78.6863 1056.31 76 1053 76C1049.69 76 1047 78.6863 1047 82C1047 85.3137 1049.69 88 1053 88Z" fill="#E5E5E5"/>
</g>
</svg>
