<svg width="1369" height="621" viewBox="0 0 1369 621" fill="none" xmlns="http://www.w3.org/2000/svg">
<g id="star4">
<path id="Vector" d="M1190 491C1193.31 491 1196 488.314 1196 485C1196 481.686 1193.31 479 1190 479C1186.69 479 1184 481.686 1184 485C1184 488.314 1186.69 491 1190 491Z" fill="#E5E5E5"/>
<path id="Vector_2" d="M765 621C768.314 621 771 618.314 771 615C771 611.686 768.314 609 765 609C761.686 609 759 611.686 759 615C759 618.314 761.686 621 765 621Z" fill="#E5E5E5"/>
<path id="Vector_3" d="M255 438C258.314 438 261 435.314 261 432C261 428.686 258.314 426 255 426C251.686 426 249 428.686 249 432C249 435.314 251.686 438 255 438Z" fill="#E5E5E5"/>
<path id="Vector_4" d="M6 12C9.31371 12 12 9.31371 12 6C12 2.68629 9.31371 0 6 0C2.68629 0 0 2.68629 0 6C0 9.31371 2.68629 12 6 12Z" fill="#F2F2F2"/>
<path id="Vector_5" d="M1363 42C1366.31 42 1369 39.3137 1369 36C1369 32.6863 1366.31 30 1363 30C1359.69 30 1357 32.6863 1357 36C1357 39.3137 1359.69 42 1363 42Z" fill="#F2F2F2"/>
</g>
</svg>
