<svg width="893" height="752" viewBox="0 0 893 752" fill="none" xmlns="http://www.w3.org/2000/svg">
<g id="star3">
<path id="Vector" d="M879 106C886.732 106 893 99.732 893 92C893 84.268 886.732 78 879 78C871.268 78 865 84.268 865 92C865 99.732 871.268 106 879 106Z" fill="#F2F2F2"/>
<path id="Vector_2" d="M14 752C21.732 752 28 745.732 28 738C28 730.268 21.732 724 14 724C6.26801 724 0 730.268 0 738C0 745.732 6.26801 752 14 752Z" fill="#F2F2F2"/>
<path id="Vector_3" d="M547 10C549.761 10 552 7.76142 552 5C552 2.23858 549.761 0 547 0C544.239 0 542 2.23858 542 5C542 7.76142 544.239 10 547 10Z" fill="#F2F2F2"/>
<path id="Vector_4" d="M547 10C549.761 10 552 7.76142 552 5C552 2.23858 549.761 0 547 0C544.239 0 542 2.23858 542 5C542 7.76142 544.239 10 547 10Z" fill="#F2F2F2"/>
<path id="Vector_5" d="M625 209C628.314 209 631 206.314 631 203C631 199.686 628.314 197 625 197C621.686 197 619 199.686 619 203C619 206.314 621.686 209 625 209Z" fill="#F2F2F2"/>
</g>
</svg>
