<svg width="50" height="50" viewBox="0 0 237 145" fill="none" xmlns="http://www.w3.org/2000/svg">
<g id="Satellite">
<path id="Vector" d="M42.8137 0L0 21.3576L82.953 71.4499L122.636 47.5818L42.8137 0Z" fill="#3F3D56"/>
<path id="Vector_2" d="M145.773 67.8555L237 121.479L194.634 144.437L103.441 88.9296L145.773 67.8555Z" fill="#3F3D56"/>
<path id="Vector_3" d="M128.981 41.2412C133.843 43.3995 138.108 46.5298 141.459 50.3989C144.81 54.268 147.161 58.7764 148.336 63.5885C148.801 65.3397 148.721 67.1744 148.105 68.8865C147.49 70.5985 146.363 72.1202 144.851 73.2804L118.477 93.5885C116.58 95.046 114.242 95.9428 111.773 96.16C109.304 96.3772 106.821 95.9044 104.654 94.8043C93.9305 89.3827 76.7105 78.0017 84.3997 63.5885C85.2592 61.9876 86.574 60.6261 88.207 59.6461L117.6 41.9243C119.267 40.9156 121.195 40.3219 123.191 40.202C125.188 40.0822 127.184 40.4404 128.981 41.2412Z" fill="#D0CDE1"/>
<path id="Vector_4" d="M98.6327 120.946C111.684 112.086 110.665 90.699 96.3558 73.1769C82.047 55.6548 59.8674 48.6328 46.8161 57.4926C33.7649 66.3525 34.7844 87.7394 49.0931 105.261C63.4018 122.784 85.5815 129.806 98.6327 120.946Z" fill="#3F3D56"/>
<path id="Vector_5" opacity="0.2" d="M86.1537 120.496C80.8064 124.128 68.0884 116.967 56.6559 104.265C55.6433 103.142 54.6423 101.976 53.653 100.767C52.9284 99.8792 52.2299 98.9911 51.5577 98.1032C40.9572 84.1379 36.767 70.4394 42.2421 66.723C47.7575 62.9767 61.1029 70.7037 72.8021 84.1464C73.4554 84.8995 74.1023 85.6677 74.7428 86.4511C76.957 89.1584 79.0048 91.9756 80.8767 94.8897C88.417 106.691 90.8679 117.293 86.1537 120.496Z" fill="black"/>
<path id="Vector_6" d="M80.8767 94.8898L56.6558 104.266L39.3263 110.973L36.7634 107.819L51.5577 98.1033L72.802 84.1465C73.4553 84.8996 74.1022 85.6679 74.7428 86.4512C76.957 89.1585 79.0048 91.9757 80.8767 94.8898Z" fill="#D0CDE1"/>
<path id="Vector_7" d="M34.629 116.352C37.5366 116.352 39.8937 114.203 39.8937 111.552C39.8937 108.901 37.5366 106.752 34.629 106.752C31.7214 106.752 29.3643 108.901 29.3643 111.552C29.3643 114.203 31.7214 116.352 34.629 116.352Z" fill="#D0CDE1"/>
</g>
</svg>
