<svg width="774" height="780" viewBox="0 0 774 780" fill="none" xmlns="http://www.w3.org/2000/svg">
<g id="star1">
<path id="Vector" d="M765 780C769.971 780 774 775.299 774 769.5C774 763.701 769.971 759 765 759C760.029 759 756 763.701 756 769.5C756 775.299 760.029 780 765 780Z" fill="#F2F2F2"/>
<path id="Vector_2" d="M459.5 553C464.747 553 469 549.194 469 544.5C469 539.806 464.747 536 459.5 536C454.253 536 450 539.806 450 544.5C450 549.194 454.253 553 459.5 553Z" fill="#F2F2F2"/>
<path id="Vector_3" d="M5 109C7.76142 109 10 106.761 10 104C10 101.239 7.76142 99 5 99C2.23858 99 0 101.239 0 104C0 106.761 2.23858 109 5 109Z" fill="#F2F2F2"/>
<path id="Vector_4" d="M750 12C753.314 12 756 9.31371 756 6C756 2.68629 753.314 0 750 0C746.686 0 744 2.68629 744 6C744 9.31371 746.686 12 750 12Z" fill="#E5E5E5"/>
</g>
</svg>
