<svg width="957" height="854" viewBox="0 0 957 854" fill="none" xmlns="http://www.w3.org/2000/svg">
<g id="star2">
<path id="Vector" d="M14 28C21.732 28 28 21.732 28 14C28 6.26801 21.732 0 14 0C6.26801 0 0 6.26801 0 14C0 21.732 6.26801 28 14 28Z" fill="#F2F2F2"/>
<path id="Vector_2" d="M375 603C382.732 603 389 596.732 389 589C389 581.268 382.732 575 375 575C367.268 575 361 581.268 361 589C361 596.732 367.268 603 375 603Z" fill="#F2F2F2"/>
<path id="Vector_3" d="M389 854C392.866 854 396 851.09 396 847.5C396 843.91 392.866 841 389 841C385.134 841 382 843.91 382 847.5C382 851.09 385.134 854 389 854Z" fill="#F2F2F2"/>
<path id="Vector_4" d="M951 216C954.314 216 957 213.314 957 210C957 206.686 954.314 204 951 204C947.686 204 945 206.686 945 210C945 213.314 947.686 216 951 216Z" fill="#F2F2F2"/>
<path id="Vector_5" d="M844 20C847.314 20 850 17.3137 850 14C850 10.6863 847.314 8 844 8C840.686 8 838 10.6863 838 14C838 17.3137 840.686 20 844 20Z" fill="#F2F2F2"/>
</g>
</svg>
